<mxfile host="app.diagrams.net" modified="2022-04-27T17:54:06.638Z" agent="5.0 (Windows NT 10.0; Win64; x64) AppleWebKit/537.36 (KHTML, like Gecko) Chrome/100.0.4896.127 Safari/537.36" etag="9idbUqBtBsDez53jjkPD" version="17.4.6" type="github">
  <diagram id="Ufoeb3ninuzHda8RG1Xv" name="Page-1">
    <mxGraphModel dx="325" dy="352" grid="1" gridSize="10" guides="1" tooltips="1" connect="1" arrows="1" fold="1" page="1" pageScale="1" pageWidth="850" pageHeight="1100" math="0" shadow="0">
      <root>
        <mxCell id="0" />
        <mxCell id="1" parent="0" />
        <mxCell id="S5mfKkTuvSXy2Zh6-5-G-1" value="" style="endArrow=classic;html=1;curved=1;" edge="1" parent="1">
          <mxGeometry width="50" height="50" relative="1" as="geometry">
            <mxPoint x="140" y="240" as="sourcePoint" />
            <mxPoint x="380" y="240" as="targetPoint" />
            <Array as="points">
              <mxPoint x="260" y="270" />
            </Array>
          </mxGeometry>
        </mxCell>
        <mxCell id="S5mfKkTuvSXy2Zh6-5-G-2" value="" style="endArrow=classic;html=1;curved=1;" edge="1" parent="1">
          <mxGeometry width="50" height="50" relative="1" as="geometry">
            <mxPoint x="140" y="260" as="sourcePoint" />
            <mxPoint x="380" y="260" as="targetPoint" />
            <Array as="points">
              <mxPoint x="260" y="290" />
            </Array>
          </mxGeometry>
        </mxCell>
        <mxCell id="S5mfKkTuvSXy2Zh6-5-G-3" value="" style="endArrow=classic;html=1;curved=1;" edge="1" parent="1">
          <mxGeometry width="50" height="50" relative="1" as="geometry">
            <mxPoint x="140" y="280" as="sourcePoint" />
            <mxPoint x="380" y="280" as="targetPoint" />
            <Array as="points">
              <mxPoint x="260" y="310" />
            </Array>
          </mxGeometry>
        </mxCell>
        <mxCell id="S5mfKkTuvSXy2Zh6-5-G-4" value="" style="endArrow=classic;html=1;curved=1;" edge="1" parent="1">
          <mxGeometry width="50" height="50" relative="1" as="geometry">
            <mxPoint x="140" y="300" as="sourcePoint" />
            <mxPoint x="380" y="300" as="targetPoint" />
            <Array as="points">
              <mxPoint x="260" y="330" />
            </Array>
          </mxGeometry>
        </mxCell>
        <mxCell id="S5mfKkTuvSXy2Zh6-5-G-5" value="" style="endArrow=classic;html=1;curved=1;" edge="1" parent="1">
          <mxGeometry width="50" height="50" relative="1" as="geometry">
            <mxPoint x="140" y="320" as="sourcePoint" />
            <mxPoint x="380" y="320" as="targetPoint" />
            <Array as="points">
              <mxPoint x="260" y="350" />
            </Array>
          </mxGeometry>
        </mxCell>
        <mxCell id="S5mfKkTuvSXy2Zh6-5-G-6" value="" style="endArrow=classic;html=1;curved=1;" edge="1" parent="1">
          <mxGeometry width="50" height="50" relative="1" as="geometry">
            <mxPoint x="140" y="340" as="sourcePoint" />
            <mxPoint x="380" y="340" as="targetPoint" />
            <Array as="points">
              <mxPoint x="260" y="370" />
            </Array>
          </mxGeometry>
        </mxCell>
        <mxCell id="S5mfKkTuvSXy2Zh6-5-G-7" value="" style="endArrow=classic;html=1;curved=1;" edge="1" parent="1">
          <mxGeometry width="50" height="50" relative="1" as="geometry">
            <mxPoint x="140" y="360" as="sourcePoint" />
            <mxPoint x="380" y="360" as="targetPoint" />
            <Array as="points">
              <mxPoint x="260" y="390" />
            </Array>
          </mxGeometry>
        </mxCell>
        <mxCell id="S5mfKkTuvSXy2Zh6-5-G-8" value="" style="endArrow=classic;html=1;curved=1;" edge="1" parent="1">
          <mxGeometry width="50" height="50" relative="1" as="geometry">
            <mxPoint x="140" y="380" as="sourcePoint" />
            <mxPoint x="380" y="380" as="targetPoint" />
            <Array as="points">
              <mxPoint x="260" y="410" />
            </Array>
          </mxGeometry>
        </mxCell>
        <mxCell id="S5mfKkTuvSXy2Zh6-5-G-9" value="" style="endArrow=classic;html=1;curved=1;" edge="1" parent="1">
          <mxGeometry width="50" height="50" relative="1" as="geometry">
            <mxPoint x="140" y="400" as="sourcePoint" />
            <mxPoint x="380" y="400" as="targetPoint" />
            <Array as="points">
              <mxPoint x="260" y="430" />
            </Array>
          </mxGeometry>
        </mxCell>
        <mxCell id="S5mfKkTuvSXy2Zh6-5-G-10" value="" style="endArrow=classic;html=1;curved=1;" edge="1" parent="1">
          <mxGeometry width="50" height="50" relative="1" as="geometry">
            <mxPoint x="140" y="420" as="sourcePoint" />
            <mxPoint x="380" y="420" as="targetPoint" />
            <Array as="points">
              <mxPoint x="260" y="450" />
            </Array>
          </mxGeometry>
        </mxCell>
        <mxCell id="S5mfKkTuvSXy2Zh6-5-G-13" value="&lt;font style=&quot;font-size: 30px&quot;&gt;pSTEM Inbound&lt;br&gt;FIELD&lt;br&gt;&lt;/font&gt;" style="text;html=1;align=center;verticalAlign=middle;resizable=0;points=[];autosize=1;strokeColor=none;fillColor=none;" vertex="1" parent="1">
          <mxGeometry x="150" y="190" width="230" height="50" as="geometry" />
        </mxCell>
        <mxCell id="S5mfKkTuvSXy2Zh6-5-G-14" value="&lt;font color=&quot;#069968&quot;&gt;AREA of&amp;nbsp;&lt;br&gt;ATTENTION&lt;br&gt;&lt;/font&gt;" style="text;html=1;align=center;verticalAlign=middle;resizable=0;points=[];autosize=1;strokeColor=none;fillColor=none;fontSize=30;" vertex="1" parent="1">
          <mxGeometry x="470" y="240" width="180" height="80" as="geometry" />
        </mxCell>
        <mxCell id="S5mfKkTuvSXy2Zh6-5-G-15" value="&lt;font color=&quot;#ff0000&quot;&gt;PERCEPTUAL&lt;br&gt;SLICING&amp;amp;DICING&lt;br&gt;&lt;/font&gt;" style="text;html=1;align=center;verticalAlign=middle;resizable=0;points=[];autosize=1;strokeColor=none;fillColor=none;fontSize=30;fontColor=#069968;" vertex="1" parent="1">
          <mxGeometry x="440" y="330" width="260" height="80" as="geometry" />
        </mxCell>
        <mxCell id="S5mfKkTuvSXy2Zh6-5-G-16" value="" style="endArrow=none;html=1;fontSize=30;fontColor=#FF0000;curved=1;strokeWidth=2;strokeColor=#FF0000;" edge="1" parent="1">
          <mxGeometry width="50" height="50" relative="1" as="geometry">
            <mxPoint x="220" y="410" as="sourcePoint" />
            <mxPoint x="220" y="290" as="targetPoint" />
            <Array as="points">
              <mxPoint x="210" y="340" />
            </Array>
          </mxGeometry>
        </mxCell>
        <mxCell id="S5mfKkTuvSXy2Zh6-5-G-17" value="" style="endArrow=none;html=1;fontSize=30;fontColor=#FF0000;curved=1;strokeWidth=2;strokeColor=#FF0000;" edge="1" parent="1">
          <mxGeometry width="50" height="50" relative="1" as="geometry">
            <mxPoint x="290" y="410" as="sourcePoint" />
            <mxPoint x="290" y="290" as="targetPoint" />
            <Array as="points">
              <mxPoint x="280" y="340" />
            </Array>
          </mxGeometry>
        </mxCell>
        <mxCell id="S5mfKkTuvSXy2Zh6-5-G-18" value="" style="endArrow=none;html=1;fontSize=30;fontColor=#FF0000;strokeColor=#FF0000;strokeWidth=2;curved=1;" edge="1" parent="1">
          <mxGeometry width="50" height="50" relative="1" as="geometry">
            <mxPoint x="190" y="400" as="sourcePoint" />
            <mxPoint x="330" y="290" as="targetPoint" />
            <Array as="points">
              <mxPoint x="180" y="350" />
              <mxPoint x="330" y="330" />
            </Array>
          </mxGeometry>
        </mxCell>
        <mxCell id="S5mfKkTuvSXy2Zh6-5-G-19" value="" style="endArrow=none;html=1;fontSize=30;fontColor=#FF0000;strokeColor=#FF0000;strokeWidth=2;curved=1;" edge="1" parent="1">
          <mxGeometry width="50" height="50" relative="1" as="geometry">
            <mxPoint x="270" y="410" as="sourcePoint" />
            <mxPoint x="310" y="290" as="targetPoint" />
            <Array as="points">
              <mxPoint x="250" y="370" />
              <mxPoint x="310" y="350" />
            </Array>
          </mxGeometry>
        </mxCell>
        <mxCell id="S5mfKkTuvSXy2Zh6-5-G-25" value="" style="shape=stencil(fZXdbsMgDIWfJrdHgAHj6/28R6V1a7Sunbru7+3nKEpX09Z3BPhMDj7GA919bFbv6yGFj+Nh/7r+Hp+Om4Huh5TG3WZ9GI86GuhhoLvn/WH9cth/7p7m7/fVtHMave2/pgg/MxcQwgSl8NtNPM7bt+PO2x4R6u3tBCKznUFO9BhAxYavKMUBMrIYQH8o0W1ABXC2QENjB2C0aABiREcDFUR7Qi7I+TaQE3IzQElozQEEwYou4oouGc0CNS9nXgcEtQMaqpOHSqhWAyfE5ACMZK+VM8S5Vg5I1nmsIRwNTEuaToCgOF7lAk4GaNEVzQ3Bim56DU4eWkCsFihIzi21hMAW0HqIDkDL8glgFOdaW17cfwLaUlLXgdrbuwmiB/DizTPAs7f+QLJ5kIDiAYJsMy36CDg1rfG6V0MBcayhy9QBCewBFzUthOx4aVrugIzoAVrBNnFSEJxnRpdL7QF23Cr14oTq2lv0ce8AnXHsLWo1aw2dcUVrpjsNsrwjNxrKZcMKfYfTwX93fB6327m5nq/33VSn5k5MD38=);fillColor=none;fontSize=30;fontColor=#FF0000;" vertex="1" parent="1">
          <mxGeometry x="193.0158699883355" y="374.64285744561084" width="21.904758877224392" height="20" as="geometry" />
        </mxCell>
        <mxCell id="S5mfKkTuvSXy2Zh6-5-G-27" value="" style="shape=stencil(fZVLcsIwDIZPk63GtuSH1pTegxlCyZQCA/R1+yqTJiCTaJfI+mzZ+iU1uLruN+e2Ce56u5ze2+9ue9s3+NKE0B337aW7yVeD6wZXu9OlfbucPo/b4f+86T37r4/TV7/Dz8A5cK6HgvutDK+D+6E7KvdAlTvHZXcEl5V7AC7L7hlyUO5iMILxEquORiyeDQCBkwYIyIjfF8DqhAKclwG5sS/6xgTeG0ABrxMQ2Lw0BkBWABIwGkCCWAE8vvMsQE9JJgI0TiCEok+gAsl4Jcrjq49ADFBoGYi+lmnMpk4jQdAhJVGqBWRIWhrJlobsVyogAxuZlv2cvnT2plplvyoPebrVfPk4oArIo1jmAYSg6zMzFKtAU52HEkbBzwMFSJ9QREvGKxX3BCTwhpYkgFgBkkojpHsAE8BjDc4DqW4zLBViSOMewARIpo0CkgBQNz4OEIyQJICk88BovpIEwLkGrEYmy4QaILPVy3LVBDgCG22Gp7xOQIJiSINFzLqA2J4PXOpmLJZoSIO5rofeYg0U9zQ/H0z/iHzcp++uOxyG4f24Xk9rMQ2THtd/);fillColor=none;fontSize=30;fontColor=#FF0000;" vertex="1" parent="1">
          <mxGeometry x="193.80953047010632" y="371.4682663811577" width="21.74602508544922" height="22.380951775444878" as="geometry" />
        </mxCell>
        <mxCell id="S5mfKkTuvSXy2Zh6-5-G-29" value="" style="shape=stencil(fZVNctswDIVPo+0biiAJYJ2m98hM7FpT1844TpPcPvDIVgPWwo4S8YH4eSQGenjdPb1shpxez6fj78379HzeDfRjyHk67Dan6WyrgR4HetgeT5tfp+Pb4Xn+fnm6WF5Wf45/Lx4+Zi4hpQuU02f34+dsvp8OzlzJmY9IZd2cwN57BY3r5ozG3nuC0Lq9Qoq3JxRZt7ft6/ELwFAOAAY1B+QMqeuA1UN8ClmQghRyQ/YAZWhQI0pg9QCjBC0jq7lvQrEgNQAUxYdUKiQ4oRBq9oCiBTkUi7h6XRByXgfqIrMFaLfe3wcKsjigmbBbADDYh9RMLIGWzB97abSGEiRt/tiXtSnGIAfzp75xvKjrPmBV90lzCfvAGc1riRljIG+uqN0JJpZASyzIvnEygoOkJaF0AN0Efx/I/Y2TihadUKC+08Kogbyl9VUSDbUkgupzUMsqeATMX/es6hjeONsmf+OUMAYhqT0qXUgFFFTJtquXt1rvAy3ZdldWbeDgAinfrvwCcNhplZuYF0DC8TCm/6bbt19XxBb/ZuN22u/n0fp9v5+l9muew/T4BQ==);fillColor=none;fontSize=30;fontColor=#FF0000;" vertex="1" parent="1">
          <mxGeometry x="196.66666242811414" y="368.6111259460449" width="17.142855326334637" height="20.31745062934028" as="geometry" />
        </mxCell>
        <mxCell id="S5mfKkTuvSXy2Zh6-5-G-32" value="" style="shape=stencil(fZRLbsMwDERP4+1AJvWh1ml7jwBxGqNpHCTp7/aV4aoNXZs7meSzOBqJDW+uh+25a8hdb5fhpfvod7dDww8NUX86dJf+VlYNPza82Q+X7vkyvJ120/d5O1aOq9fhffzD58Q5ODdC5L5mgaep/Nif7soJ4mflIayXC1j/3SPH9fI21HStbwmhNYAMaTUQ4dnov6T1DqMkA2AGacXs0KZ1wJe03oFTbXIZiMh6Bx/AxqEGQmYFlAiLAchcQ4kEQ0MkpKSAyNX4ZSAiadGxWJ/XgeRA2rhENbIMMILWkAK8BUREffeSmHcp5dpxBaSFN96CEFrRACMbosUjadESQcZ7kATSTouY11uKBu1DdvUYFoFcJGrR+df7ZYDhtejsEY2WcoCbAbGe2zJQjJsBCZ4MQOCCBgTRAjJIX40SCYZxrfs3Ju9CP0hZ/A3ZfX88TjP6Pj8fyiU0DXR+/AY=);fillColor=none;fontSize=30;fontColor=#FF0000;" vertex="1" parent="1">
          <mxGeometry x="197.77777353922522" y="366.70636283026795" width="14.920633104112413" height="19.206356472439236" as="geometry" />
        </mxCell>
        <mxCell id="S5mfKkTuvSXy2Zh6-5-G-33" value="" style="shape=stencil(fZPdbsMgDIWfhlvLYDBw3XXvUanpgpYlVZru5+1HlHWLWcKdczhfzLGwosOtPV0bZfA2jcNr85HOU6voSRmT+rYZ05QrRUdFh8swNi/jcO/Py/f1NDvn6m14n//wuXAIiDNk8KsQnhd7l/qVnYBZ2Bk87du1BnbCrxnI7ANGg44CyB04VgAGLQOQBhcqCSwE2cEicAWwFrAAIvgK4AyEIAAXqkPlHJrkVN1D2QZCCXgNxu8DPmewEmAwugJEsHKsAYEqHQJBlFcKttoheHBFh19lE4hYvr2skKsABN5LgKpTivkCMkPkR6rt543/1mcl/SC5+Fu+S+q6ZXfX5+WyZmlZdDp+Aw==);fillColor=none;fontSize=30;fontColor=#FF0000;" vertex="1" parent="1">
          <mxGeometry x="201.1111068725586" y="362.73811128404407" width="14.444448682996962" height="18.095228407118054" as="geometry" />
        </mxCell>
        <mxCell id="S5mfKkTuvSXy2Zh6-5-G-34" value="" style="shape=stencil(fZPbUsMgEIafhtt/gOV4Xet7dKapYYxJJ43avr0waM1Ww93u8n/sAVbQ7tIfzp3Q8rLM02v3mY5LL+hJaJ3GvpvTki1Be0G70zR3L/P0Ph6rfz4UZbHepo9yw7VyElIWSMvbQ+C5yoc0ruQEH5jcwrptuVKQjumVQXG3gJxec0BnIDYAC7IciDCm0cG9gB+AApzaBoyB4hlMgGqUZAnk+ZB8s2mnYRQDnIUO24CXoMgAr0GNd/AewXAgwNttIBhIDpQINYAIyXsI7bHGPCX+leJ9DP8DDoFniBahUZKSfz73KvSNZON3NU5pGOpmrc8fVymH6hrS/gs=);fillColor=none;fontSize=30;fontColor=#FF0000;" vertex="1" parent="1">
          <mxGeometry x="203.49205440945093" y="359.722237057156" width="11.190486484103733" height="14.285706414116753" as="geometry" />
        </mxCell>
        <mxCell id="S5mfKkTuvSXy2Zh6-5-G-35" value="" style="shape=stencil(fZTdboMwDIWfhlvLsZM4ue6696hUOtAYVJT9vf0SsWmYrb4zxl9yjpO44cOtO13bhvC2zNNz+96fl67hh4aoH7t27pcSNXxs+HCZ5vZpnl7H8/p9PdXKGr1Mb3WFj5VDQKwQ4ecu8biWD/24KWdAVuUMQe6XO4ToVL1z4LIBZMCggCrI2KEI8EkDHsRy4ACjtkAQDEmcIGnPvrii+4CPgKSBZHoIBCQKCB58NACBrLsU8WeJf4FIELMGSpfYAOK+rTGBD/cBwb0HcZAMSeKBvAYCROPgpAjQd0my2aVEIFpSYnDJACKIlpQEyJCU3V5SyUTDdBZgfXA1Y9wlh38e6Cb1jZTg93lf+mFYp8P2/34clNQ6Svj4BQ==);fillColor=none;fontSize=30;fontColor=#FF0000;" vertex="1" parent="1">
          <mxGeometry x="204.60316552056207" y="358.92858505249023" width="10.476192898220486" height="13.333320617675781" as="geometry" />
        </mxCell>
        <mxCell id="S5mfKkTuvSXy2Zh6-5-G-36" value="" style="shape=stencil(fZPbbsMgDIafhlvLxhyvu+49KjVd0LKkSrPT2w/EpMWZ4M6Y/zO2/KP49Bgv90FpfGzr8jp8pus2Kn5SWqd5HNa05UjxWfHptqzDy7q8z9d6vl+KskRvy0ep8FU5BMQCafw+JJ6rfErzTq6Bj3Jv2nIyYILQE4LznfoBUAI6l+i8wAbQCoARArcBk+vJEQwBURuwFsgLwBLETkvOQpQtOQZ0bcDb4xK8Bh/aQMhrYAGE/tAhADsJeCjHFhAZSLYUNdjYARxYOXTO9DZN+M96u9QvkoM/497SNFXf7++PRs+p+kn4/AM=);fillColor=none;fontSize=30;fontColor=#FF0000;" vertex="1" parent="1">
          <mxGeometry x="207.9364988538954" y="357.81747394137915" width="4.603178236219618" height="7.142851087782118" as="geometry" />
        </mxCell>
        <mxCell id="S5mfKkTuvSXy2Zh6-5-G-37" value="" style="shape=stencil(hZPbboMwEES/xq8je9cX9jlN/yNSSEGlISKkl7+vEY3K0uC+rcdzfBuv4d21OVxqQ/Y6Dv1r/dEex8bwkyFqz009tGOuDO8N7079UL8M/e18nMeXw+Scqrf+fVrhc+YsrJ0gsl8r4Xm2d+15YXegqOwOQbbtCSFo+z/LJ9AKEHBhAyK4pADycG4bYAsnCmCC9wVAEEkB3oHTNuAFgRUQHHzhDkHgNRDzIWkbiAmij5SVKhZiCPD6lbLChRwqgq0UULl7lI+BhOQ1ECGFHYSRnAIk51C4g6R10hLv7/b4L9k/f3sh/SC5+O2MU9t1c2Mt59edlKW5C3n/DQ==);fillColor=none;fontSize=30;fontColor=#FF0000;" vertex="1" parent="1">
          <mxGeometry x="209.36508602566187" y="354.64285744561084" width="4.206343756781684" height="6.666666666666666" as="geometry" />
        </mxCell>
        <mxCell id="S5mfKkTuvSXy2Zh6-5-G-38" value="" style="shape=stencil(fZJJDoMwDEVPk63l2JlYU3oPJKBEpYCATrcvKJVKqGDn2P/Fsv0Fp2Od96UgHKehu5ZPX0y14JMg8m1dDn6aI8GZ4LTqhvIydPe2CO8+X5RLdOseyw+vwCEgLhDhe5M4B3nj25VcA5lILkHrfbnUYJNYz4C0D1ACTBFAFkjtA2xAughgBnvQQTlAjgClIeF9wCDoGNDusIPVoFQEWAZzMINzIOOtunloebBW/DvbKvVF5uB39Mo3TfDMur41yZwKBuPsAw==);fillColor=none;fontSize=30;fontColor=#FF0000;" vertex="1" parent="1">
          <mxGeometry x="211.1111068725586" y="354.64285744561084" width="3.0158699883355036" height="3.4127044677734375" as="geometry" />
        </mxCell>
        <mxCell id="S5mfKkTuvSXy2Zh6-5-G-40" value="" style="shape=stencil(fZTbboMwDIafJreWE+fgXHfde1QqHWgMKspOb78gBFuS4bvg/B/+4zhWdHq0l3ujDD7maXxtPrvr3Cp6UsZ0Q9tM3ZxWis6KTrdxal6m8X24rt/3y6JcVm/jx/KHr5VDQFwgg99rQOMeel6BvhskIDJ4UW9Drjfg6VhvIehMzxa8P9YzGJvrESge6zWVQEgRCYilI+9ER8ZD8Bngwhb5FyALNs/g5DNYA+QywFowWgAiaJMBxMDmGHBuq8kOyBk8AnMOIDjhnr0HnQMmgBYyBCwtpV5BFgDajrgDGkg4dAhlWTWDc0LvVZa0gyBcHFeWUjuiUCUO4AtLclljZYnFBMtrzBM4iEKNYt0Y4IVLiNX71MBWeG1YDZhyHqXF7zS7dX2/DsO/++X0S6F1ctL5Bw==);fillColor=none;fontSize=30;fontColor=#FF0000;" vertex="1" parent="1">
          <mxGeometry x="192.38094329833984" y="364.0079519483778" width="6.746033562554254" height="15.079349941677517" as="geometry" />
        </mxCell>
        <mxCell id="S5mfKkTuvSXy2Zh6-5-G-41" value="" style="shape=stencil(fZVJbsMwDEVP4+2HRGriOm3vESBOYzSNgySdbl8ZRgYKMXeyzGeJ/J90x6vzbn3sO3Lny2n86H+GzWXX8UtHNBx2/Wm41FXHrx2vtuOpfz+NX4fN/HxcT5HT6nP8nr7wO3MOzk0Qub95w7vb1tsM7IeDAkJQgGQUvxwfkJt4gshyvHfIXgElQbIBMKRogJGTAUh7pZwhtAxQApMG/LUKTwFmuKSAFJCMpFnAOulYwIYKIYJFA4RgJB0dkr5SSKYOMSLqE4JHKctAcmB9Amc4o0q1Jk3SXK1hAQVOX4kEZFSpytR4iSIyG0CE1zkQgaMBFCRtjeoub+hQCC5rIMEbJ5QIxxpgBKPhSgZre3sPMuxdBKlpUXgjXurndMPlqxmfx3MrW4QYIkhA1CWqzWNUSKqmWgMGG0aVdPXxTWSzdaSAoi6oHS+tAM403cPEvQN6BNfFfYBvh/1+nv+P79uBX7fmnwW//gM=);fillColor=none;fontSize=30;fontColor=#FF0000;" vertex="1" parent="1">
          <mxGeometry x="195.71427663167316" y="357.81747394137915" width="12.063492668999565" height="21.746020846896702" as="geometry" />
        </mxCell>
        <mxCell id="S5mfKkTuvSXy2Zh6-5-G-42" value="" style="shape=stencil(fZRJbsMwDEVP4+2HRGpcp+k9AsRpjLpx4KTT7SvDcBp64E6W+SSKn/wV727nw7WuyNzuffdefzfH+7nil4qouZzrvrmXVcX7inenrq/f+u7zchy/r4chclh9dF/DCT8jZ2DMAJH5HTeseWy9jkDbXAQQWAA5I9nteAY5GR9BvB2f4GbxFkHJx1qwFUAqR2hAWAAM67YBsohZAFF/AkUEkoBBIqVGjCBvCA5WAzJIAj4i+W3AOXiZkrfIGpARgwBcmJJcBfziBveo2zqQpr6ZAI7wig6htNIM4KkM68BCB8qwSq/GUhM5DeRBig4xwHsJWJBS1mQQ5RtsRFRuSKURogQcnPKGVM6TAzRMSNoG8iKlBB+V+IUMAaTFe/Csk8CKasUfeCYCvDLPxX+M1MDCKAV6MrgJmDteWfz75alp29Fun//P/bVsjd7M+z8=);fillColor=none;fontSize=30;fontColor=#FF0000;" vertex="1" parent="1">
          <mxGeometry x="196.8253877427843" y="355.67461013793945" width="16.666683620876736" height="27.53968556722005" as="geometry" />
        </mxCell>
        <mxCell id="S5mfKkTuvSXy2Zh6-5-G-43" value="" style="shape=stencil(fZRNcsIwDIVPk+0by5Yte03pPZghlEwpYQL9u32dZkJRCto5lr7oSbLUhNV5vzm1jXfny9C/tp/d9rJvwlPjfXfct0N3qacmrJuw2vVD+zL078ft9H3ajJ7j6a3/GP/wNXEOzo2Qd9/TRSkQ+b15nvwP3dHyJ3e9ugt45KQDCGJ47C8YTbf+Ht4QVJCL8s8FIT72J4YjDTCykQBlRFaAFCQ2Mg4oukYS5iLcBwpYA0kgRoTAy6QToRgR2CHpLsRkVpWrWUeIBKLHQDWnqACOKEYfqgAJGiA4I+maYtaNCwnBG0CCEw14kAGIA+mkfYYrBsCz4ivA8EYOImAtqQ5UNqYhO7CWRHV8DEnZz/+7AgyxgAjRZaVaJeMt5Yy0WBnzgNwfUAJnPQ7mwig8d/X6MMBGiUp9SFpP1W/Ns/u3w5YbrB7+9uWuOxymdXtrX+7XejXt5rD+AQ==);fillColor=none;fontSize=30;fontColor=#FF0000;" vertex="1" parent="1">
          <mxGeometry x="199.523802863227" y="362.3412768046061" width="14.444444444444445" height="22.671962314181858" as="geometry" />
        </mxCell>
        <mxCell id="S5mfKkTuvSXy2Zh6-5-G-44" value="" style="shape=stencil(fZTLbsJADEW/Jtsrz9uzpvQ/kAglKiUo0Nff11EExdPi3TD4jO34Xndhdd5vTn3n6XyZxtf+c9he9l146rwfjvt+Gi5y6sK6C6vdOPUv0/h+3C6/T5s5cj69jR/zC18LRyCaIU/fy4Wj29XzAhyG4x3g4LwCKiP4x/Eesej4hFoexyfk5n2PbNRTUJp4QmCjfgcfFcDZTOASnO6APVw1gIqqM5QCl41PlFD0EIpDNDIEB2YF5ARvAQzKCkiMagAxwumSkkcxgETwuqSYUYymU4ZrAEKJj4EsTeuSgjSdDCCDkwZEGs6QkkjDKUAmUy3tiTT0pEXuFAyArx/xZjdGNJoWqZGWt7MnzRG5ySD+MfzABb7JQEiGobm2jmZ4w9BVtBy0WE2D1oCo5xzBhpBkn5AWkjxg1F9FFrphb7pT9hvp+um6cv63P/3Zqe1GlcPvPt4Nh8Oyzu//b/e3XC27P6x/AA==);fillColor=none;fontSize=30;fontColor=#FF0000;" vertex="1" parent="1">
          <mxGeometry x="201.1111068725586" y="366.5476332770453" width="14.126981099446613" height="22.06348419189453" as="geometry" />
        </mxCell>
        <mxCell id="S5mfKkTuvSXy2Zh6-5-G-45" value="" style="shape=stencil(fZXdbsIwDIWfprdHsfN/zdh7IFFGNUZRYX9vv1TVCk6p70Lqj8SOz3FjN9fj7tI2bK63oX9vv7v97djYl4a5Ox/bobuVVWO3jd0c+qF9G/rP8376fdmNkePqo/8a/+Fn4gyMGSE2v9MGmXnrdQJO3VkA2QsgZ0Ql3sNZGR9g4no8MUJ1gAElBQhgCaSAZNcBZpCTAMEpV+IEmwUQPXxYB6yvqxoyLK0DjuocggUrSbuAQALwEUk5wRskmYMvhVZO8IscXAJrJyT4KAGnJh2ozsEZBFYABxcEYKNapRBhWQIO5BUgI1XA/DJPgUjI8ko8l+E54MDyHbj0r9KtcZbLDDhVoHF+phkgJKVKycBLPYyukBWA4SvTSCANKFWXVxpFqwG+7lZyOpBgZA7FR7TWuJvK3fhgNWDpGnBavEWsJK36ZF7qDVlRT7HRIPuiOIbSeHkhT0JUKvowB/6BejCUxX2sHLrTaZpKj9/rMVS2phFmt38=);fillColor=none;fontSize=30;fontColor=#FF0000;" vertex="1" parent="1">
          <mxGeometry x="203.49205440945093" y="371.4682621426052" width="11.11112806532118" height="17.77779049343533" as="geometry" />
        </mxCell>
        <mxCell id="S5mfKkTuvSXy2Zh6-5-G-46" value="" style="shape=stencil(fZXdbsIwDIWfprdHiZ3EyTVj74FEGdUYRYX9vf1SVWVzWX0XQr469jmxG95cj7tL25C73ob+tf3s9rdjw08NUXc+tkN3q6uGtw1vDv3Qvgz9+3k//b7sxpPj6q3/GL/wNXEOzo0Que9pw7v71vMEnLqzAgoroGREWj8fIKTPB+Syft7XAF4BuZgBfAAFDSRENoACKRrwoLgOUILTESQiGFdiQhAFpAL2BlCWOSQGGzmEgKIjREE0ZItuLuId8CjBACI4KyAIXDaAKlPUACEZERIha6CWwRlJp4iszcp1xwKqNXUOVZliCCceTpuPHbyRgzCCFo4EYlSpOmehA9WdZACCpJMmRjK8JFUHnQN5JFkHqvtFe2l8IUaVMi+F8xnOyCHXFPWL8wlsNIEss/vvQLCv9PCAvK10cUsvebsJFAIn3chmc/1/PsDrAGJfqLYUXaMEb8hcBKSNFOAMlWubTgtbzB9Y6cMPo2E5GOrid6wcutNpmkp//1+Oobo1jTDe/gA=);fillColor=none;fontSize=30;fontColor=#FF0000;" vertex="1" parent="1">
          <mxGeometry x="204.4444402058919" y="377.02381769816077" width="11.428570217556423" height="14.285706414116753" as="geometry" />
        </mxCell>
        <mxCell id="S5mfKkTuvSXy2Zh6-5-G-47" value="" style="shape=stencil(fZTbcoQgDIafhtsMJCLkert9j51Ztzq1uuPa09sXhtEaW3MXIF/IT0IMnR7t5d4YtI95Gl+bz+46t4aeDGI3tM3UzckydDZ0uo1T8zKN78O1rO+X7Jmtt/EjR/gqnAVrM4T2u2w4u249F6DvBgGEIACO4PyxvwdbS38HxMf+jsBVAogIoVKAACiBkDKiYwAJvEwpWCB3DFDS7AVQo6qZIuSzDeAJWBFdeeAogKoGr2jwCCTrRgw+KkCAIEVTegZFdJLIJACMy53/A2HJeAWS6PoYCA6iLBzqdQgeotSQam81gJd4K0AQ8BjIrba7wQIrzRdrqFh2q/qqkZdwayuBVcrG6Tfs6qzmw38aCdX4m9++APvvn4zf4XHr+r7Mnu35ftikrTKo6PwD);fillColor=none;fontSize=30;fontColor=#FF0000;" vertex="1" parent="1">
          <mxGeometry x="209.99999576144745" y="380.35715103149414" width="6.904767354329427" height="11.428565979003906" as="geometry" />
        </mxCell>
        <mxCell id="S5mfKkTuvSXy2Zh6-5-G-48" value="" style="shape=stencil(fZLZDoMgEEW/htcJO/hs2/8wESupFYN2+/tCSFuxkbfLZQ7DLIjVc99MBlE8L95dzMO2S4/YAVFqx954uwSF2BGxunPenL27jW06T02MjOrq7vGFZ+IwYBwhil/JIPhrnRIw2HEFVKBoBmgFuhBPJUiVAQqDYvsAp6BlBggOTO4D4q8GHr6k9gFJQeQAE4ALGZQGntdAKhCk0CSyLVqCKsSvmv4BtlMI4jfDzg5DWoH1/XbmwUr7wo5v);fillColor=none;fontSize=30;fontColor=#FF0000;" vertex="1" parent="1">
          <mxGeometry x="213.492071363661" y="385.9127065870497" width="3.80950927734375" height="6.507928636338976" as="geometry" />
        </mxCell>
        <mxCell id="S5mfKkTuvSXy2Zh6-5-G-49" value="" style="shape=stencil(hZTZboNADEW/htcrz+qZ5zT9j0ghBZWGiNDt7zsIJY2huG+DuWfk5Y4rt7s2h0tdWbqOQ/9af7bHsancU2Vte27qoR3LqXL7yu1O/VC/DP37+Th/Xw6Tcjq99R/TDV8zZ4hANGGWvufQPfA8A117fgAyIyehNyCv6D1CEHoHY7f1iUFG6BkhK3oHlvoM5m09J3CW+TtEDXDwC6BklLaByPBWAKVFXgMM2EsgwigphQgvAUdIUQEs4mIIAVmZmk+3jO9ARtIADyeLLpHgtoFyHy2ADKsYw60GHTyi4gxbapBAJLXoyZkLIN6u+BMoRiDZVi6NVuZgVpMudgxK0atBF7tnxUoWlqU+qeYmcJSPx6reNjAynxzAyrZYLZec1adgbt24vzXS15EhRPMPUQ6/6+/Udt28PR//L9dlCc2r1u1/AA==);fillColor=none;fontSize=30;fontColor=#FF0000;" vertex="1" parent="1">
          <mxGeometry x="215.39682741518368" y="348.6111259460449" width="5.23808655915439" height="5.07936265733507" as="geometry" />
        </mxCell>
        <mxCell id="S5mfKkTuvSXy2Zh6-5-G-50" value="" style="shape=stencil(lZTbboMwEES/xq8je9cX/Jym/xEppKDSEBHSy9/XyCJlEVjqmzFz8OzuYMWHe3O61Yr0fRz69/qrPY+N4hdF1F6bemjHtFJ8VHy49EP9NvSP6zk/306Tclp99J/TF74zZ7SG1hNG+idvPTdeM9C11wUQHar/6KsIikJvwFTQGxj5/QrR7uuDA0m9sbAFQ94hOAEQwfM+4ByiEQDT7HETsB7aC8ASOO4DnHrKAnAMVziBPEIQgLfwZh8wAYEEEFKXCpYiKiunkEoo1QyWFaS5h4IhPTdk1qdc2VDSr1IaI1zBv13Xuwj6doccWMYiBrhCLJKlwGvAF0pgD5KeIs9z305qNYfgObQAFiekxd+ffWm7Ll8My/frmyBt5VuEj78=);fillColor=none;fontSize=30;fontColor=#FF0000;" vertex="1" parent="1">
          <mxGeometry x="219.56349584791394" y="350.0396961636013" width="5.039686626858181" height="4.821422364976671" as="geometry" />
        </mxCell>
        <mxCell id="S5mfKkTuvSXy2Zh6-5-G-51" value="" style="shape=stencil(lZTbTsMwDIafpre/kjgnX4/xHpPW0YqyTl3H4e1JFQ3qQoK4c9P/sx3bcUO7a3e4tI1R13kan9u3/jh3DT00xvTnrp36OVkN7RvancapfZrG2/mYvy+HRblYL+Pr4uE9c1opKLVgRn3ko6+DxwwM/XkFcIA1/9FraOnfgXRZHxW8E3rtEGwZCMmfTMikkKEMeA9NEmA4LgPOgYMAKCLEMmAdnBeAjeAKQA52U6QEUBkwHlZWyQeQKwOaoVkAwcJWLq0JWkYIjFiJEO9tvetjClDpm4WPUh+hKoNhYGRN02RRpUQKUebDBG9qeiXz4dSUSj5qO3bswZX7/nhnHOGr+k3+q6f6+xDB0B9AMr4XwakfhrxH1v+3iyMd5aVD+08=);fillColor=none;fontSize=30;fontColor=#FF0000;" vertex="1" parent="1">
          <mxGeometry x="225.76719495985242" y="346.86507966783313" width="8.20105234781901" height="7.777777777777778" as="geometry" />
        </mxCell>
        <mxCell id="S5mfKkTuvSXy2Zh6-5-G-52" value="" style="shape=stencil(hZTbboMwDIafJre/EjvH6657j0qlA41BRdnp7ReUrcNMZHfG8efk9wHFh1t7ujaK9G2exufmvTvPreIHRdQNbTN1c7YUHxUfLuPUPE3j63Au39fTErlYL+PbkuGjcEZraL1gpD+L6+54LEDfDSsgJTgj4gnRV+IdYhTx5p8LNAxLIMC5fSB6WKmADEKqAPkGJ4EEW9EQCGQFwKEq2jO8fJL1oIoGZ5G8ABwj8T6Q823a4A102Ac4QkvRPoJMBdBg2Ydgq1UihtsACZH2gdxXL58ULajSOMNbDTGrspVZAgcRnwxspapuOxh5eqmSn34qeI+vz8WfXVut3zeQjd9dvXR9X1Z9fb7d7ewq/wU+fgE=);fillColor=none;fontSize=30;fontColor=#FF0000;" vertex="1" parent="1">
          <mxGeometry x="231.26984914143878" y="343.84920544094507" width="10.793652004665798" height="11.111119588216146" as="geometry" />
        </mxCell>
        <mxCell id="S5mfKkTuvSXy2Zh6-5-G-53" value="" style="shape=stencil(fZJNcsMgDIVPw1YjJEB4nab3yEycmqlrZxynbW4fe+iPlRZ2QnofkuAZ3l26w7k1hJd5Gl/bj3ScO8NPhigNXTuleYkM7w3vTuPUvkzjdTjm8/mwKtfobXxfb/jMnEUExBUjvOXUT+I5A30aNkAj4BqlJ0Bf1keBIEpvCQKVAWGQhwa+2iEIkAbYgndlwAdovAKcBeEy4DzEoADPgLEMsAOvRwoOqNKBlrIeSRxgZQcbgDUQCWzlWSOI/oYGvzP/rwActT5UH/WPjTbO+gKW4NeGp9T32cXb+qNtl1S2PO/v);fillColor=none;fontSize=30;fontColor=#FF0000;" vertex="1" parent="1">
          <mxGeometry x="238.9682557847765" y="343.0555703904894" width="10.555547078450521" height="10.31744639078776" as="geometry" />
        </mxCell>
        <mxCell id="S5mfKkTuvSXy2Zh6-5-G-54" value="" style="shape=stencil(fZTbbsMgDIafhlsLbDBw3XXvUanpEi1LqjQ7vf2IWLs4U3xnzP8hH7ANHW7t6doYtLd5Gl+bz+48t4aeDGI3tM3UzcUydDR0uIxT8zKN78O5nq+nRblYb+PH8sJX5Zy1YO2Cof2urofjuQJ9N6yAnIDDRs9J0XvIKPQBUt7XpwwYhd4hRFaAADFLgIFxH4gZkowICZyScnxc3wGy4JWQuITkJZDAh30gRMgyB89gowJYcCSrSuBpH/AIyAJgC6j0jUrfZNLMkBQA47YPUS8runtNHkBSv5IL4JMAEqkhOQtBViklQK3T4JzQZ6fnDHGjZ7Wo/2Ytl9/uNX2Q76/G9Rcoxt9sX7q+r6thfb/dBcVV9wgdfwA=);fillColor=none;fontSize=30;fontColor=#FF0000;" vertex="1" parent="1">
          <mxGeometry x="244.20635011461047" y="340.0396961636013" width="15.634920332166883" height="15.634913974338108" as="geometry" />
        </mxCell>
        <mxCell id="S5mfKkTuvSXy2Zh6-5-G-55" value="" style="shape=stencil(fZTbbsMgDIafhlsLbA7muuveo1LTJVqWVGl2evsRobUxTbgj8H/Bv42t6HBrT9dGob7N0/jefHfnuVX0ohC7oW2mbk4rRUdFh8s4NW/T+Dmc8/f1tCiX1cf4tfzhJ3NGa9B6wVD/5q37xmsG+m5YATGCD0JvgKiid+C90HugsK9nBpZ6QxBiBbAQpAHDoCsRhQCWBICuGpJnsCgAInC8Dzgub7D4n4VNwDI4adoZCHYfIIZoZVY1WLcPYCxvSK5CxUMqa2E6eDC4DxgLWgKMwBUPDFjo72nbThIgC32kap0RtHQck4FKPKbMUAxAlYf31DiP1tjRs/S76r3tZwThyYATFUiLR2Nfur7Pc2F9Xg6CtJWHCB3/AA==);fillColor=none;fontSize=30;fontColor=#FF0000;" vertex="1" parent="1">
          <mxGeometry x="251.8518575032552" y="339.722237057156" width="16.08464135064019" height="15.95237096150716" as="geometry" />
        </mxCell>
        <mxCell id="S5mfKkTuvSXy2Zh6-5-G-56" value="" style="shape=stencil(jZTbboMwDIafJrdWbOd43XXvUal0oLFSUXZ6+wVFdLij1u6M83+ODzGGd9f2cGkM2es0Dq/NZ3ecWsNPhqg7t83YTcUyvDe8Ow1j8zIO7+dj/b4cZuVsvQ0fc4SvyqG1YO2Mkf2urpvjuQJ9d14BOQKx0DMgKfpynIQ+A+bH+lTiZ6HHsHi2AQYXBVAqYCWjGCCTBG41bQIhg3OyZA+ICoBLSxbAMXgF8AQsi/YIWQFKPJIpBaumxA5YjjlESPExQB6SnFv0alsxQUQBJISkpIQEXt5QZh+CMjgIskmZ1Lk5CHcvz0FSXhKClT3NaWnapv7P5qyW6d8XRNHSYvxu6qnr+7ro6/P7zS6u+lfg/Q8=);fillColor=none;fontSize=30;fontColor=#FF0000;" vertex="1" parent="1">
          <mxGeometry x="259.16666242811414" y="336.70636283026795" width="19.087304009331596" height="18.65078396267361" as="geometry" />
        </mxCell>
        <mxCell id="S5mfKkTuvSXy2Zh6-5-G-57" value="" style="shape=stencil(fZRJbsMwDEVPoy1BkRrMdZreI0Cc2qgbB47T4faVIaStlIo7Sv6PlDkZ3l2Hw6U3hNd1mV/7j/G4DoafDNF4HvplXJNleG94d5qX/mWZb+djPl8Om3Kz3ub3zcNn5iwiIG4Y4Ve++rl4zsA0nnXAAkobEA9RCn2E7dTSdwGo8h+g6xTAgrUFQAQY2kAkkBJgBIptIDAEKgEBpyTJpwiuAJwA+TbgCFz5JN/d0/YvwATsCyBECLYNEAPHsgweWAHsQ91SokWpQ/rDSh/VAA6YC71YiEpjYF2E1FlW8f/QpxLvKWjobZlRSSVQipz0VZ+iPjpcAyIQWRs16Fz9Il8ESMbvZJ/GacqL4e/3ehOkq7xFeP8N);fillColor=none;fontSize=30;fontColor=#FF0000;" vertex="1" parent="1">
          <mxGeometry x="269.7222201029459" y="336.38890372382264" width="12.817482418484158" height="19.33862050374349" as="geometry" />
        </mxCell>
        <mxCell id="S5mfKkTuvSXy2Zh6-5-G-58" value="" style="shape=stencil(fZPdbsMgDIWfhtsjsAHDdde9R6WmS7QsqdLs7+1HxLqFRuHOmPNxsGUrPtza07VRpG/zNL42n915bhU/KaJuaJupm1Ok+Kj4cBmn5mUa34dzPl9Pi3KJ3saP5YWvzBmtofWCkf7Oqb/Ecwb6blgBMYJiobewUtEzTKk3BB/2geAgpgCIqg7BwLsS8IgVB7EQLgB24IqDF2gqa7Ygsw84uX/gDjiC2H3ABngpAG9AlRo4IpRt9RHaVYBNl8QhVmogfvxSarRUALPpUkiZStEBoTSI9cnYTFIUkN/XbyZ7Ney/QAr+N+PS9X1erPX94yalVN5CPv4A);fillColor=none;fontSize=30;fontColor=#FF0000;" vertex="1" parent="1">
          <mxGeometry x="274.92065005832245" y="341.1508072747124" width="7.460293240017361" height="13.015861511230469" as="geometry" />
        </mxCell>
        <mxCell id="S5mfKkTuvSXy2Zh6-5-G-59" value="" style="shape=stencil(fZRJbsMwDEVP4+0HB43rNL1HgDiNUTcOHHe6fW24Sc2k1o6i/hM+JVKVbi7H3bmuhC5D373Wn81+OFb6VIk0p2PdN8MYVbqtdHPo+vql795P+3l93k3KKXrrPqYTvmaOiUA0YULfc+qWeJ6BtjktgBzBavQKyuv6lJDE6JmRpQAQgjeAMHxcB2KAOgsEcFgHwoMldWAuAIRoLTlBLNTgBSEbwDO0ADh/dXwDctGSJnA0QAigQtHKcLaGKPAFS+KR2ALxmvkfoPsa0nhLaR1gd92+ARGuYIkJYh8uM0QLrQGxjrIDucIlwVtDY7erX9c/zE7OCIVWZZA9fzF+v8AY/M3qoWnbedSX+/ezPabmf0G3Pw==);fillColor=none;fontSize=30;fontColor=#FF0000;" vertex="1" parent="1">
          <mxGeometry x="277.0634926689996" y="346.70636283026795" width="7.380947536892361" height="11.984121534559462" as="geometry" />
        </mxCell>
        <mxCell id="S5mfKkTuvSXy2Zh6-5-G-63" value="" style="shape=stencil(lZNLbsMwDERPo+2A1F/rNL1HgDi1UdcOHKef29eCC9R0EQLdUdQ8khA1xh1u7enaGEu3eRpfm4/uPLfGPRlru6Ftpm5eIuOOxh0u49S8TON9OK/n66kqa/Q2vtcKnytHIKqQpa9d4nmV992wkTvE/8iZYJPQW5B/rK/lstBn+KDoA6LUs0PKyvwB7OVAjKJM5D1CEYBjOKVD8KAgAL8A7jEQLbIcKTCCAiRCZAFEQkkKkEBOAgVFWVtmpCiAWkJ5pRzg5Z6zhdc6ZPBu0RFeedbCqHdboCArHcryVeXiikWwChBQ5OJqRgGY/phnk/pBluDXepeu71fnbu/3Vl1Sq83d8Rs=);fillColor=none;fontSize=30;fontColor=#FF0000;" vertex="1" parent="1">
          <mxGeometry x="277.9364988538954" y="336.70636283026795" width="5.8730316162109375" height="7.777765062120226" as="geometry" />
        </mxCell>
        <mxCell id="S5mfKkTuvSXy2Zh6-5-G-64" value="" style="shape=stencil(fZTNcoMwDISfhuuOLVu2dU7T98hMSMM0DRmS/r19YSg0okE3Y/YzWq1RFTbX4+5SV+Sut659rT+b/e1YhaeKqDkf66659asqbKuwObRd/dK17+f9+HzZDcph9dZ+DCd8jZyDcwNE7nux8TzKT835Tk4oZSGPtC4vKKLkhMzrcp8QdTUFnA29QLzSe4/ojfITKGggwck6EAIcaQce2XAcBKxLooyU1oHIYP2FEOEMgB1y1oAgGR6YJ4sTECM4GECBsAbK1OiHQCKwzo0JYgSXGFHnwAlsmE4FIWlAUOI6kD18VEBfZDE85LBsa19kLgaQkLXpJGZwWabzJiATguGh0HSZZ4CRrN+tT1q3NdvBlTz1ZP7h5igfAzLlOgN2l4RA2nSxuyQRUQfXH+GM2yoJQecgDDJMS4HX13vYMdrq3b8pebf1i/SLvxl7aE6ncUTfv1/O5H5rnOdh+wM=);fillColor=none;fontSize=30;fontColor=#FF0000;" vertex="1" parent="1">
          <mxGeometry x="271.9047843085395" y="338.92858505249023" width="12.857140435112846" height="12.698406643337673" as="geometry" />
        </mxCell>
        <mxCell id="S5mfKkTuvSXy2Zh6-5-G-65" value="" style="shape=stencil(lZTdbsMgDIWfJrdHgAHDdde9R6Wma7SuqdLs7+1HlGWr6WJpd2DOZ2Ns3NDmetxd2saZ6zj0z+17tx+PDT00znXnYzt0Y1k1tG1oc+iH9mnoX8/7eX/ZTcpp9dK/TR4+Zs7AmAly5rMyPM7yU3e+kVvY+A95QLZCTghJ8e4QgtBneFb0AYmFvniItA6U+7OXAOtAgpHAlEJYB8gjyiuRAeV1wFuQrAAxnFcAXvwtgCckpxSBYOWrBgOrJB0SfJJABCkRIoFk0tEiK4WLDHYS0JNmiyRzmCwacNcaxcJKHTiDqggZzq4DqbSabO5iCcpnSAFRRigWFxUgLcc/AKsRsgFXQF6e4W+A6vbOeuFyqOdF9jDKl84MWwERXqlDTuAKKO2oNJ81dzPsxvSNlMXvBDx0p9M8QG/P64lZTPO0pe0X);fillColor=none;fontSize=30;fontColor=#FF0000;" vertex="1" parent="1">
          <mxGeometry x="266.0317611694336" y="340.5158721076117" width="18.253953721788193" height="15.079366895887587" as="geometry" />
        </mxCell>
        <mxCell id="S5mfKkTuvSXy2Zh6-5-G-67" value="" style="shape=stencil(fZTdboMwDIWfJreW859cd917VCodaKxUlO7n7eeIhdZ0+C4czpfk2JGV3V3bw6VRBq/TOLw3X91xapV9UcZ057YZu4lWyu6V3Z2GsXkbh9v5OH9fDsVZVh/DZ9nhe+YQEAtk8GclvM72vjszu3cru/XbdguYmd2AF3aPkPllIpi8bdcIOTE/Kc4IQAAXOOAhhm2gBIg8ACWwQmAqEE9MCiYBSOA0BxKgkMEFQN4CRxmEonpbW1QBUowQOmD9XYGiCH0IAQKv0l35v88GNL9SUZwABIiWA3SCcKWEEHkfiiI0Lrl1lYoiZEixPuUFiJCEK2Vcn0BKEDqdTd1vASxoodPZ15ezAB6sFoD4BFAqIXROtSYLkCALb0nj04B5kP4QWtzH06nr+3m6Pf5fjzOS5lFo978=);fillColor=none;fontSize=30;fontColor=#FF0000;" vertex="1" parent="1">
          <mxGeometry x="259.3650945027669" y="340.8333481682671" width="19.523790147569443" height="15.238087972005207" as="geometry" />
        </mxCell>
        <mxCell id="S5mfKkTuvSXy2Zh6-5-G-68" value="" style="shape=stencil(fZTNcsIwDISfJtcdW7It+0zpezBDKJlSwoT07+3rTApFKejmKPsl9q6shlfn/ebUNuTO49C/tp/ddtw3/NQQdcd9O3RjXTW8bni164f2Zejfj9v5+bSZlNPqrf+YvvA1cw7OTRC570XheZYfuuONnOGTkhMkPpYLCit5hvjHck9IWel9gCcDCCgLQOCSARQkrw9AIGNLFBBFAwIpBlCQowKYUcSwNCLpPwQHb5gaPERnFhLYcCnUHQcFREI0Uo4M0VuK+ZLMfaAeWtuaAsjIIUWI7gyxG088orZVoumS1EZYANdk7gLZX3K9NqsdXI7IuvmymLbm2nz69hR3+cRdoDAyacC+D0UQdA61wsahvfs3AG5Kv0hd/I2PXXc4zNPn9v1y3NTSPKp4/QM=);fillColor=none;fontSize=30;fontColor=#FF0000;" vertex="1" parent="1">
          <mxGeometry x="246.82540469699433" y="341.78571701049805" width="18.412687513563366" height="13.492062886555988" as="geometry" />
        </mxCell>
        <mxCell id="S5mfKkTuvSXy2Zh6-5-G-69" value="" style="shape=stencil(fZRNcsIwDIVPk+0b27Jla03pPZghlEwpYQL9u32dSaEoNNo5ij7JepLV0Oq835zaJrjzZehf289ue9k39NSE0B337dBd6qmhdUOrXT+0L0P/ftxO36fN6Dme3vqPMcLXxDk4N0LBfc8Mz5P7oTveuXsPJuUvSGHZv4aLWfn7DLaADFcUEAgclwFy1wvcgFuI/4Eyz0ARgZaBmBBFAdGbRSeHoouOGT4bQIKwAlIAGzXwQxtSARk1MCNrlZhQDFmzB+kauCAnA6gqRQXkADFUyoKgr5QZYtRQApJWqTgEbwAJ7DVApkqlXAfhBjA8LwNSx3uWoUDEAALy7P3YsyQRWfdBCGK8UKmd1leqFmu8JUNmGQqSIat3D0vjzvSL1MPfytl1h8O0se7/z1dUNU3rjdY/);fillColor=none;fontSize=30;fontColor=#FF0000;" vertex="1" parent="1">
          <mxGeometry x="242.69841935899524" y="342.738094329834" width="13.65078396267361" height="13.333341810438368" as="geometry" />
        </mxCell>
        <mxCell id="S5mfKkTuvSXy2Zh6-5-G-70" value="" style="shape=stencil(fZRNcoMwDIVPw1ZjW5Ysr9P0HpkJaZjSkCFJf25fM5QWUdDOEe+LniVZFe5u58O1roK73fvutf5ojvdzhU9VCM3lXPfNvZwq3Fe4O3V9/dJ3j8tx/H09DMrh9Na9D//wOXIOnBug4L4WgedR3jaXmTyALOUpbssJHCk5AtK2XEC8kidg3pZ7D0HrvQM07HgCihooDsW4rltmKBFCAyCQoAEGNjKghyS6RAjBuAPK5PgXyFNTVoEYwbMCIgN5o2kOvL4DBWCjbUTAukokQGEbYAeiLTFCNCwxL8eUSxmMDMlB1J1O5Q5G41IE0WVNPA3LOiCQkwKk5LSGO0DWliSawyfFwCJDmiKrQC5vVwMlQsZo5GIpawCnuq0DDF53ukSi8USzAOpO5zyN4/oTdf820iz0g5TD3z47NW07rsP59+X+K6Fxd+L+Gw==);fillColor=none;fontSize=30;fontColor=#FF0000;" vertex="1" parent="1">
          <mxGeometry x="253.96824730767145" y="341.6269832187229" width="16.984134250217014" height="14.206356472439236" as="geometry" />
        </mxCell>
        <mxCell id="S5mfKkTuvSXy2Zh6-5-G-71" value="" style="shape=stencil(lZPbboMwEES/hteRvevbPqfpf0QKKagUIkJ6+fsaUbUsLZb6tixzbM/aU/Hh1pyudUXmNo3Dc/3Wnqem4oeKqO2bemynXFV8rPhwGcb6aRzu/Xn5vp5m5Vy9DK/zCu8LZ2DMDJH52DQeF3nX9iu5hf+PPECikjNYCqt7GFF6ayCl4whC0IAH+X2AIsQrgAgp7QMcYZK2kGcQ9wGXPVsFOAu2+4APsHoHb+EKRwoOUXsIBr4w1khg1kBCcAVAQNpDDDBhH0gOQV9cIjgqAAlRX1z6HvSfgBCs9iAWtvA0xEGcBhy48DQkbseaO65g2ppf4Vm1vpBc/ETv0nbdktz1/21Uc2uJOR8/AQ==);fillColor=none;fontSize=30;fontColor=#FF0000;" vertex="1" parent="1">
          <mxGeometry x="237.46032290988495" y="344.4841406080458" width="14.12697262234158" height="9.36507331000434" as="geometry" />
        </mxCell>
        <mxCell id="S5mfKkTuvSXy2Zh6-5-G-72" value="" style="shape=stencil(fVTbbsMgDP0aXi3AXOznrvuPSk2XaFlSpem2/n2JsmqBCL8Z+xx8MLYVHm7t6dooq2/zNH42P915bhW+KWu7oW2mbk6WwqPCw2Wcmo9pvA/n9Xw9LcjF+hq/lxt+V54GrReS1Y/C8b7C+27YwC14k8ENBKzDGYLN4Awx1OGGwIb8egL0ghwDzBkhKZQyJAGYK0INxHUCRvB5Bpcq5OoE54HyNzgCpjrB40vxi+BTTlsnBAOWMkLwoqQQS0nRghHKGhFCniGmn5EIu7ISghckkQNdECI4ofFo9w+sIQiSUpjzN3CSJGRIYcpHgT14qbl92XwcwQq9xASmGAeCKLSG0bvx3Lj+KMn4H+5L1/frbtjGy2WQXOsiweMT);fillColor=none;fontSize=30;fontColor=#FF0000;" vertex="1" parent="1">
          <mxGeometry x="231.9047673543294" y="346.07142766316736" width="10.555551317003038" height="9.761912027994791" as="geometry" />
        </mxCell>
        <mxCell id="S5mfKkTuvSXy2Zh6-5-G-73" value="" style="shape=stencil(fZNNcsMgDIVPw/YNIBCwTtN7ZCZO7alrZxz37/bFQ9Nabs1OwPuQHkKKDrf2dG2U1bd5Gp+b9+48t4oelLXd0DZTN+dI0VHR4TJOzdM0vg7nsr6eFuUSvYxvyw0fhdPQeoGs/txsPBZ53w0ruYWxG3k0+/IIH4TcI/p9uUnwshrDoFgpx4MlkCv0vA+QRzICIAu2+4AL0NKxo3vOfwEfQSQ9O8SKB05wTgDMMBUPIcHIVw0MW/EQGUGajg6m0odkoVkAScPXgHB/xB8gN85VOq3/fLyUQKmSIsJJE6s7vokc/P7zS9f3ZUzW59u5yFtlpuj4BQ==);fillColor=none;fontSize=30;fontColor=#FF0000;" vertex="1" parent="1">
          <mxGeometry x="225.23810068766272" y="348.2936498853895" width="10.000002119276258" height="6.5079498291015625" as="geometry" />
        </mxCell>
        <mxCell id="S5mfKkTuvSXy2Zh6-5-G-74" value="" style="shape=stencil(lZPdbsIwDIWfJrdWYtf5uWbwHkgUGq1rUSlse/ulyqTVRVjaneOcLzp2bEO7W3e8tgbtbZ7G9/Yzn+bO0JtBzEPXTnkukaG9od15nNrLNN6HUz1fj4tyiT7Gx/LCV+UsWLtAaL83iUOV93lYyRFi+Ic8gSUhR1XuAqB0k4BRcVOea4TeNcDxNUAWKEpDCKw4ogRBAuTAh9dAUwBZcqMDnMDJGli35D0kCXiEpHQp8PaPQ+mb0qVYDMgaooVICpDAOwlEiEmZCwJm+dGsT4Z9GtRV6hcpwd+Yn3Pf1y1Z32/XoqTqStH+Bw==);fillColor=none;fontSize=30;fontColor=#FF0000;" vertex="1" parent="1">
          <mxGeometry x="220.476197136773" y="349.0873018900553" width="7.380939059787326" height="4.761912027994792" as="geometry" />
        </mxCell>
        <mxCell id="S5mfKkTuvSXy2Zh6-5-G-75" value="" style="shape=stencil(fZJNDoMgEIVPw3YCDAisbXsPE7WSWjVq/25fCE2qGNgNM+/jZeARLJeumhrC6bLO46152XrtCJ4I53bomtmuriJ4Jli249xc5/Ex1OE8VV7pq/v49De8A0eBUg9x+okalyDv7bCRCxBiJ2cgZFrOivh6RkFgGuAKzN7AOSiRBhABcQ8oYCqzwQFABTKzskTQZgcIDZhxKGS8tDSgdBpQh1dVFBhLA/oAaAY642A4+NkGcB00mY+jh2BsWj/EFf9YtbbvQyq38ziGrhUijOcv);fillColor=none;fontSize=30;fontColor=#FF0000;" vertex="1" parent="1">
          <mxGeometry x="218.88888465033637" y="349.4047609965006" width="3.5714340209960938" height="3.650796678331163" as="geometry" />
        </mxCell>
        <mxCell id="S5mfKkTuvSXy2Zh6-5-G-76" value="" style="shape=stencil(lZTbboMwDIafhlsrieMcrrvuPSqVrmhdqSg7vf0cIQpm4Gl3wfyfT3Fc4e5+Ptzqypl737Wv9Wdz7M8VPlXONddz3TU9nyrcV7g7tV390rXv1+PwfTsUZTm9tR/Fw9fAGTCmQM58LwzPg/zSXGdyDw7/IY/gpHcH5Lfl1kLMQp8As6InMEnoiwe7DXC6QeZvOcWgAAGikxUgeCUCOkiyZDRASgTMYEkCCZxStCdwXgCTZRUgCyhrKBYlAgVIsq1sIdoGggVrBTBZ1gEPaQF48EkBImQ5GWwJSlsjJxAEEI3apeghyIuLDoJTAJ5NWUOk0cUqkB7D/wD47qMCcNdlhIRgcRvIXOICCOp7yDgOwggUF8o9ZAKSXWIXXhmNzCXK4ctxnK71N21+raSZaT1GBKQ/CD5MK/DUXC7DBp3/X65MNg3rFvc/);fillColor=none;fontSize=30;fontColor=#FF0000;" vertex="1" parent="1">
          <mxGeometry x="278.09525807698566" y="362.4206352233887" width="7.499987284342447" height="10" as="geometry" />
        </mxCell>
        <mxCell id="S5mfKkTuvSXy2Zh6-5-G-77" value="" style="shape=stencil(fZNNcsMgDIVPw1YDEr/rNL1HZuLUnrp2xnHb5PaFoaSWa7MT4n3oIZCgw609XRuB8jZP43vz3Z3nVtCLQOyGtpm6OUaCjoIOl3Fq3qbxczjn9fWUlCn6GL/SCffMSZAyQSgfq8RrlvfdsJATYGByBdrty5UCdEzvwYV9fazukJ/vwWAFMOC4/2RRVS5AYIkBpEDqfUAjoOFAKE3YBIxcW9IOQqWC8eA5YCxQ5dLWguGWrK5aclQMFMCpYnIT8BKU4oAHWbHkTWni86Fjo80+EGLXPQPCs+Y2YMHzh4sZTZW/J//97UXqF4nB32Rcur7Pg7XcX09STOUppOMP);fillColor=none;fontSize=30;fontColor=#FF0000;" vertex="1" parent="1">
          <mxGeometry x="273.80953894721137" y="364.4841406080458" width="11.26981947157118" height="14.444431728786892" as="geometry" />
        </mxCell>
        <mxCell id="S5mfKkTuvSXy2Zh6-5-G-80" value="" style="shape=stencil(fZRJcoMwEEVPw/aXpNbUa8e5h6uMAxViXBhnuH1EERyaxL0T0n890xXtrs3hUlfOXMehf60/2uPYVPRUOdeem3pox3KqaF/R7tQP9cvQ387H+ftymJTT6a1/nyx8zpyBMRPkzNfm4nmWd+15JXewUm7h6LE8w1ohj8jusdxGMEvzAcYq4VjkIAFG0uJnZC8Al0AKQBmRBEABWUnZJ0TpwXuwAoSIID0EQkiPgei3HuK9Lf8CySJJD5ERWAHS8rwAqSSt9CE7kBNANshZASJclECpkuaBlzbdgTJcSlm5jIbMgQ2SEhJ7GFklJhilShwQ5XQXE9p4c4KV08oRpCTNGV6WtZjQZsmaP//z6uoHKYffbXBqu25eJuv37fYoV/Pmof03);fillColor=none;fontSize=30;fontColor=#FF0000;" vertex="1" parent="1">
          <mxGeometry x="267.7777735392252" y="367.50001483493384" width="17.61905246310764" height="17.222217983669704" as="geometry" />
        </mxCell>
        <mxCell id="S5mfKkTuvSXy2Zh6-5-G-81" value="" style="shape=stencil(lZXbbsIwDIafprdWYufka8beA4kyqjGKSnd6+6Uq6XBWLO0utf2l9m8naWhzPe4ubYPmOg79a/vZ7cdjQ08NYnc+tkM35lVD24Y2h35oX4b+/byfvy+7KXJavfUf0w5fM2fAmAlC810ZnufwU3e+C7f/C3dAQYQjJPs4nCFGEZ4AvZIMQkwi3logVoAIQf7ABkAlfyQgKwuwkJSUcgmhAhIQPQYogGEBkNclxVJiAVwuWgNSXYOLxbIKeAL2AvCL0OsAg0EJRBUIrh6jgBCUxoVUyxoiID4GYt5P1hCt2ukYyn4L4IAVlSIDVUACp3Q6IVgnp9uCU1RKDpxUabI4BQjg5XFLEYwG5NGQKiUGDArAZfoLwLqs2W3lieN8BUQFwKLJAriS5DpAkKRK7Evv1wEPVs4SB4hK0dl9O8ELENVpndxyNDjPr9KH7E6VSqx22po/9/ad6Ybkxe+tf+hOp/nRuPfXr0Q2zS8MbX8A);fillColor=none;fontSize=30;fontColor=#FF0000;" vertex="1" parent="1">
          <mxGeometry x="264.6031655205621" y="372.4206352233887" width="21.11111111111111" height="21.428582933213974" as="geometry" />
        </mxCell>
        <mxCell id="S5mfKkTuvSXy2Zh6-5-G-82" value="" style="shape=stencil(fZXJcsIwDIafJtd/vMs+0/Y9mCGUTClhAt3evsqkSZEhujmKPu2WG7+5HLbntnHmch36t/ar210PjX9qnOtOh3bornxq/HPjN/t+aF+H/uO0m77P21FzPL33n6OF74kzMGaEnPmpBC+T+rE73ahblCzULSKtq2eYINQJWVG3ESZK8wElKUBGshLI8HYdcAEkE2BJUABvQbJALHFKhXyuPbDElXUgREQvgLAE+RCIdyFFA1I8RIKvgDRLHgLJzV2dgWQRnAIQrEw6JdiwDpCtQyIePCVp4prI0SAPUkIiHrXKQ0LSZtUgyRyoIHgF8HCycdkiK33IsW5cDjDKeGe+P3K8M5dVSboYWFklNmGVkIqDl50eTSghlTDXZAE4aaVKJcHJHVA8ojJ8hZAqIKqjUfjGySqxz6DlUOYbvACEqEyrNXdrkp1G3UWRjWBJUvYM//5r7LLJTL2K+fC/xvfd8Ti9Arf/67XPounJ8M+/);fillColor=none;fontSize=30;fontColor=#FF0000;" vertex="1" parent="1">
          <mxGeometry x="263.80953894721137" y="380.8333396911621" width="24.100519816080727" height="20.158733791775173" as="geometry" />
        </mxCell>
        <mxCell id="S5mfKkTuvSXy2Zh6-5-G-83" value="" style="shape=stencil(fZTLcoMwDEW/xluNLfmldZr+R2ZCClMKGUJff18xtCmitXfico8l2ZYNHW7t6doYtLd5Gp+b9+48t4YeDGI3tM3UzRIZOho6XMapeZrG1+G8fl9Pi3OJXsa3ZYWPlbNg7QKh/dwJj6u974aN3UMIyo4QQ9nuHHjtZ8iV5V0GjsovClUSIAHp+kVxuQyQA9QVieJjpWMLSAoQJdQABtQliZKpDIQESWcIGbwvAzFAzAqI8afIf4GEkL0CUn2XkpyDziBKdmUg0x4QxdWADDZpIELgMsAOLGqAgSt3ie8t3u8egq3cJQ77WWAPtnIOHCHqHmSJ2i5xhqjPQRSqZHD2z3xupG9Egt/pvnR9vz4O2//710Ck9SWh4xc=);fillColor=none;fontSize=30;fontColor=#FF0000;" vertex="1" parent="1">
          <mxGeometry x="262.38094329833984" y="389.4047779507107" width="17.4603271484375" height="11.984121534559462" as="geometry" />
        </mxCell>
        <mxCell id="S5mfKkTuvSXy2Zh6-5-G-85" value="" style="shape=stencil(fZTdbsIwDIWfprdHiZ3fa8beA4kyqjGKCvt7+6WqwnBpfZe654sdH8sNb67H3aVtyFxvQ//efnf727Hhl4aoOx/bobuVU8PbhjeHfmjfhv7zvJ++L7tROZ4++q/xhp+JMzBmhMj8TgFr7qHXCTh1ZwG4JICcERQ9wbHUR0Ra10c4L/UMH9f11sA7CRgkpwAegQSQAigoL7CIskfp3oRlINUCKhAZSekRB6QogBBglTc4P7fNJzCvA54QpG3e1MgykOGlD45roxeB4JGyADjCZMVoC5Zd4hJRSopPGSjAK22NZTJlhnEa/TqQCF5msBmkvCE9+WBDvWIZiNXXO8DIyvClUsAsQxlHJcM4/RLIqtG5tMTKYUVUJik7WKkPMFbRe0SpdyCtnqcOkWpyTiB5f5kixeOH/VaB+cIrh/91eehOp2nbPv6fr9cSmlYzb/8A);fillColor=none;fontSize=30;fontColor=#FF0000;" vertex="1" parent="1">
          <mxGeometry x="264.1270065307617" y="368.84921391805017" width="22.222196790907116" height="26.428570217556423" as="geometry" />
        </mxCell>
        <mxCell id="S5mfKkTuvSXy2Zh6-5-G-86" value="" style="shape=stencil(fZLRboMwDEW/Jq9Xdmwgee66/6hUOqIxqCjb2r8fKNpGqJK3G8fHlu1r5HDrTtfWWLrN0/jefofz3Bl5MdaGoWunMC/KyNHI4TJO7ds0fg7n+L6e1sxVfYxfa4V75AhEK2TpEQNMf6HXCPRh2ACqkCohqhoieaDy4BRQC7J5oG4gnACiYM4DDUE0BRhUAJyF3U3tIa4ANGCXAgrVPOBpPzQztLAlb1GlHRyawpK8wqVLWq5QOJt/mkBQl+o/XY0hdT5/Y5tfYO+jRfy78BL6Ppp4+7937RKKjpfjDw==);fillColor=none;fontSize=30;fontColor=#FF0000;" vertex="1" parent="1">
          <mxGeometry x="267.9364988538954" y="377.1825557284885" width="18.73016357421875" height="20.476184421115452" as="geometry" />
        </mxCell>
        <mxCell id="S5mfKkTuvSXy2Zh6-5-G-88" value="" style="shape=stencil(fZTdbsIwDIWfprdHSZwf+5pt74FEGdUYRYX9vf1SVRRcUd+F9HzYPnbc0OZy2J7bJrjLdeg/2p9udz009NKE0J0O7dBd66mh14Y2+35o34f+67Sbfp+3o3I8ffbf4z/8TpyDcyMU3N904d189TYBx+6kAPIKEAaXdX2ARK1PcHldL4haz4zg1/WeEIMGIqKRkBcUDZQCYaOCckt4Bjy8EYESSEfIhBzWgUhIrICUzQjJI+suRL75/ByoTSINBGSjDbl2SddABYHWgeIQdUoUEJMBRLAoIDDImLzCyEUDEclwiatLSQN24+rkZO2SZzgxgOqJTsnPvX8OyM2TGbD7IB5J2+qd+R6EQDqCPd3jc9Ql2KMneflAI4JVQEFatNncF3Wd0FLvDEdFlnoHNsbuYb/dAWvhPQWiegn1cN+v++54nNbz4/flPq5X0y6n138=);fillColor=none;fontSize=30;fontColor=#FF0000;" vertex="1" parent="1">
          <mxGeometry x="270.79367319742835" y="382.9761992560492" width="17.301584879557293" height="18.65080091688368" as="geometry" />
        </mxCell>
        <mxCell id="S5mfKkTuvSXy2Zh6-5-G-89" value="" style="shape=stencil(fZPdboMwDIWfJrdWYidOct1171GpdERjUFH29/YLiuhqtuTOGH9gH/soOtz607VTqG/LPL12n+m89IqeFGIa+25OS44UHRUdLtPcvczT+3guz9fTWrlGb9PH+oWvwmnQeoVQf5eE0ffUcwGGNArARwHECM7X6wmCkfV2y/xbbzSQF0DwgI2GjAVLEkCIrg6gARcE4B1wA6DcEguAGTzWAZtFkjM4BtMQyRmwUlXrINo6wAZYykoMjuqA1xCkShgAG0P7AEHOsK4+1IHgtju4n1LeTOMP8Y9KEWxD1Xw4O5Hy2hoNRd6PTGC5UZ8FkZqa5h09OGUD9tbJwa/xLmkYim8f3++NmlPF5HT8AQ==);fillColor=none;fontSize=30;fontColor=#FF0000;" vertex="1" parent="1">
          <mxGeometry x="276.34922875298395" y="388.7698512607151" width="13.333307902018229" height="12.222222222222221" as="geometry" />
        </mxCell>
        <mxCell id="S5mfKkTuvSXy2Zh6-5-G-90" value="" style="shape=stencil(fZTbboMwDIafJreWY+d43XXvUal0oLFSUXZ6+wWhsDqF3AXHH/HhtxUf7u3p1ijC+zQO7813d55axS+KqLu2zdhN6aT4qPhwGcbmbRw+r+fl+3aaPefTx/A1/+Fn4RAQZ4jwdzFoXE2vC9B3VwHMVw9AjMB2358hyAeiAU37/hoheAEEC4YrgAXtJIBg/D5AGpwRgCeIrgJEQJmzMznI7Zw9aBaAddmyCZiUohaA8RDCPmAZXAGkxlTa5jSgLCszcCUk58s+kM9vbgL+KSSiag4+gJcv6ACuElLgnOIKWMAa4ErxaQKs5BCT9oNUK+iKuCOBj1IZ4CtdSNoPUnrJUBmG6Mqachb7tn/I9VgTzhXYGban+S+nPx3+d8el6/tl9Tzel7smmZY9xcc/);fillColor=none;fontSize=30;fontColor=#FF0000;" vertex="1" parent="1">
          <mxGeometry x="263.3333290947808" y="362.73811128404407" width="24.20636494954427" height="24.285719129774304" as="geometry" />
        </mxCell>
        <mxCell id="S5mfKkTuvSXy2Zh6-5-G-91" value="" style="shape=stencil(lZTbboMwDIafJrdWYud43XXvUal0oLFSUXZ6+5lRNsyKpd3l4C/J/9uxod21Plwqg/Y69N1z9d4ch9rQg0FsznXVNwOPDO0N7U5dXz313ev5OM0vhzFyHL10b+MJHxNHYMMIof2cFpy1YO330uMEtM15AViI+Z/AbXcGSoGoxCM4eUEJkOJ2vIe0Oh8h43Z8BociPmf1/Q6heAk4KKQABbAIIPEbg6I4QpRJiBGS2wbIA8kbAmvwikdsKgnAcxIUDbzt5Q18BCouhQBZukQBgpKG6MDLPGCBorjEngSZaAxzKu8CiUtVakA3Z+Y+4AGlBse2JgXIf35PAK8AXDlRanCkasgscf0/VVu5mG+V81OtamXwZ1mXEqSsxEfw8kEEqLxn0R1mYN0uePDbnU5N207Nbbm/7ma8NHVC2n8B);fillColor=none;fontSize=30;fontColor=#FF0000;" vertex="1" parent="1">
          <mxGeometry x="264.44445037841797" y="360.35715103149414" width="15.634924994574627" height="16.03175269232856" as="geometry" />
        </mxCell>
        <mxCell id="S5mfKkTuvSXy2Zh6-5-G-92" value="" style="shape=stencil(fZPbbsMgDIafhlvLYHO67rr3qNR0iZYlVZqd3n4gRlcyxXfG8P2/kW1Fh1t/unbK4G1d5tfuczivvaInZcww9d0yrClSdFR0uMxL97LM79O5nK+n/DJHb/NHVvgqnEYExIwZ/C6pe+K5AOMwyYABT/tAvF/X91pDEBwCA5vWACGwACS9DcCig7fbL5ABG/YBZyHqBmAELwDWbUviCFoAOEBwDZAkyAoAVb0KOAMY9wFKeq2DC4BC40wAbj/tCbwXAAS2LRDBamGWuOpVIPdeKEkjuLakEAGlksC0BjG1XmjDv9l+GPdfIAV/y3QZxrHs4uP9dvlSqiwuHX8A);fillColor=none;fontSize=30;fontColor=#FF0000;" vertex="1" parent="1">
          <mxGeometry x="286.66666242811414" y="334.16668150160046" width="1.7460293240017362" height="9.682532416449652" as="geometry" />
        </mxCell>
        <mxCell id="S5mfKkTuvSXy2Zh6-5-G-93" value="" style="shape=stencil(fZTbboMwDIafJrdWbOd43XXvUal0RGNQUXZ6+wVl2iARvguOv/z+E2PFp0d/uXeK9GOZp9fuM12XXvGTIkpj381pySvFZ8Wn2zR3L/P0Pl7L9/2yZq6rt+ljPeGrcKg1aL1ipL9L6C/wXIAhjRsgujrfQLDH+SGC2+cjgpEAAop7IACGY8DHuiJCYCcABLYCPHA8BlzjmRmCoOCaS+UIVjBtuS7JWGBzDJhQK1gNEQWAGyC7omOAm2vNroLQGWxqD86C9QKAtYLXgIIHcrWCN8CCB2pMe7mXcvNXCgHBC6bR1wrBih6weekQwAoesOmlmH8gwYMD5/f5BkhqpeZ8DyQ8W1PPZob8AnnxP3BuaRjKvNru1wMqh8pw4/MP);fillColor=none;fontSize=30;fontColor=#FF0000;" vertex="1" parent="1">
          <mxGeometry x="287.7777735392252" y="333.3730294969347" width="3.968251546223958" height="17.46030595567491" as="geometry" />
        </mxCell>
        <mxCell id="S5mfKkTuvSXy2Zh6-5-G-95" value="" style="shape=stencil(fZTbcoMwDES/htcdW/JFfk7T/8hMSMOUhgxJb39fM7QpIhO9GbMHa+VFDW8ux925bchdruPw2n52++ux4aeGqDsd27G71lXD24Y3h2FsX8bh/bSfn8+7STmt3oaP6QtfM+edg3MTRu573rptPM9A350WQBFwVnoPx4beI3ulj5D4WC+Msvo+w4kBOISigYRkVJQDnAaIEA3LKcPpkkiQDQ+ptjApgCOC4SEykgaChxgeQobokupOLgbAIG06EsQoiQscaSAjGV2qFlfBSN68ByY4nYxkd6l2fdWlVEDGCTVqSZ+QyfRADK895IiSDKCGjzVQ4I2S/F2WhODJAAJYnyAB4g3AI+qblmzGWyBB6Ys9AdL6hy4ENgoKfzm76QOi4ZgQVvUkxGAYBumg1hFF+bH+buAtZuAvUBf/A/PQ9f08b5fv1wO2bs3Dmbc/);fillColor=none;fontSize=30;fontColor=#FF0000;" vertex="1" parent="1">
          <mxGeometry x="290.1587210761176" y="332.4206352233887" width="6.507941351996528" height="20.634922451443142" as="geometry" />
        </mxCell>
        <mxCell id="S5mfKkTuvSXy2Zh6-5-G-96" value="" style="shape=stencil(fZTdbsMgDIWfhtsjsMHAdde9R6WmS7QsqdLs7+2XCGkbieI7Y/yBDzY2fHq0l3tjyD7maXxtPrvr3Bp+MkTd0DZTNy+W4bPh022cmpdpfB+uZX2/rJGr9TZ+rCd8Fc5ZC2tXjOx3cf06ngvQd4MOOAQ6BrJs4wUSj+NTArn6fA/KCsCIoQYSvHJDFFANUECUY0AiQi2BPaySUlgS8BXgCVkBfIaVCggOUSmDt8j1DSFDFA28eyUR+HQMUILjCogEDgrAOyDCKym5DE4VkBbRSiu5XeFSAGsAb+uwdJemwVlIrSFbNaVdoTPrnQFPdbyo8bTtvJyQlDfdf067/c+L8TcNbl3fl2Hyf387PRZXmTx8/gE=);fillColor=none;fontSize=30;fontColor=#FF0000;" vertex="1" parent="1">
          <mxGeometry x="294.9206331041124" y="329.0873018900553" width="6.34919908311632" height="20.952381557888454" as="geometry" />
        </mxCell>
        <mxCell id="S5mfKkTuvSXy2Zh6-5-G-98" value="" style="shape=stencil(hZPbboMwDIafJre/HDvH6657j0qlA41BRekObz8Qk1aDSO8c5/8cH2Ijh1t9ulaG6TYO/Xv11ZzH2siLYW66uhqacbKMHI0cLv1QvQ39vTsv5+tpVs7WR/85R/heOALRDDH9rByvi7xtugc5IyYlt7B2X2434QNCLIQnsNPxnwAeIStgSpHSPiAOoisQC/b7gBM4XYIrA37TI18GAiEG3aQnQAJpIJanFgV5BcRil2JCYgUkRuZ9YLoOenApwhdSSgFOp5QJrvRChtdtzQKRfSAzvP4a2cOHAuCRRAOp+IKlzfd+cP0hk/G/e5embZfVfbxf7+rkWvZcjr8=);fillColor=none;fontSize=30;fontColor=#FF0000;" vertex="1" parent="1">
          <mxGeometry x="296.66666242811414" y="330.8333354526096" width="5.714280870225695" height="4.761907789442274" as="geometry" />
        </mxCell>
        <mxCell id="S5mfKkTuvSXy2Zh6-5-G-99" value="" style="shape=stencil(lZTdbsIwDIWfprdHiZ0f55pt74FEGdUYRcD+3n6pujLcUUu7S93zObF95IZX59362DbkzpdT/9J+dJvLruGHhqg77NpTd6mnhh8bXm37U/t86t8Om/H7uB6Uw+m1fx8yfI6cg3MDRO5rFnga5fvucCMn+PwPeUSKMzmnZbl3IK0nsJHeM1xQ+gAKhl4QROllSnC/2oCQlN4TSlwG2M8LqFeWbAACJl1xhJRlIESwLoEZZPQ0eiTWPXJT5D6QIfqGkFGMJyVGLAqIAckCBOQVkByCAWRC1G1NCc5oa06TzyYgO2SjS7mA9Q05ms6W6kxtvZrCkQHUwek5CJvmE5mbWxKSXwbKtcQrUFCMogvP51AjTgwggvSka0QML5UM0l4q19kvbIA/C+km9IPUw+8623b7/bgNb//P118NjauTH78B);fillColor=none;fontSize=30;fontColor=#FF0000;" vertex="1" parent="1">
          <mxGeometry x="292.2222179836697" y="333.84920544094507" width="7.301584879557291" height="8.888897365993923" as="geometry" />
        </mxCell>
        <mxCell id="S5mfKkTuvSXy2Zh6-5-G-100" value="" style="shape=stencil(fZTdbsMgDIWfJrdHgAHDdde9R6Wma7SuqdJ2P28/ogwtTlPfEeLP5hyMG9pcj7tL2zhzvQ39e/vV7W/Hhl4a57rzsR26W1k1tG1oc+iH9m3o7+f99H3ZjZHj6qP/HDN8T5yBMSPkzM9i43UKP3XnWbhFJBFu4d3z8IggswewV7ITPMv0FiEoAMMlCXhwfA44AskKRTApFaj4ISsUUU5xiLj+rgA5eKWCJ+QFkBAUDcHAWwF4D6tUCBFWVvAZTMq1WZAUHTyCds8RJkogIdvnABfXZSNFglGOxEVilkAxOisAIwUBsK3NsgokC5a2coBjBQiwUjRn1aWUkJwAElWjV4Fcnpvs1sS1f9eBh17KptZcBxhGHin7+mbXgSJR3kNOsNqbNg8jZrb1h5TF/4A6dKfTNN/m/5cDrWxNw5C2vw==);fillColor=none;fontSize=30;fontColor=#FF0000;" vertex="1" parent="1">
          <mxGeometry x="287.7777735392252" y="334.64285744561084" width="9.761920505099827" height="14.92063734266493" as="geometry" />
        </mxCell>
        <mxCell id="S5mfKkTuvSXy2Zh6-5-G-101" value="" style="shape=stencil(fZTLcsIwDEW/Jts7tvzUmtL/YIZQMk0JE0Iff1970lCUFu0URUe6km01bnM57s5tQ+YyjcNr+9Htp2Pjnhqi7nRsx24qVuO2jdschrF9GYfraT9/n3c1slpvw3vN8DlzBsZUiMzXyvE8h/fd6S6ckEmEO+TwODzDehHOSP5xuHVwMr0NSEp+G5d8N4BBTtFPiEkAFOCzAjBilB0TglLBJZgsAUZQKngPIyX5iKhUCGaZ+QKEMrekAAlZTikaWOWUY4BZARHBPgaSAcseEsGSAsRl6jcgwSuScqngBJAtMitAgJWSioe1ChksJWWGV3rg0qK8GtWj3Fb2SPKxVY8yVk7rHoqHNEm8CLgBvBzl/w/I/FkAd64fpBi/6+PQ9f28fe7/r9dNcc2rym2/AQ==);fillColor=none;fontSize=30;fontColor=#FF0000;" vertex="1" parent="1">
          <mxGeometry x="285.3968260023329" y="337.0238134596083" width="9.365098741319445" height="12.380956013997395" as="geometry" />
        </mxCell>
        <mxCell id="S5mfKkTuvSXy2Zh6-5-G-102" value="" style="shape=stencil(lZTdboMwDIWfhtujxM6fr7vuPSqVrmhdqSjdz9sviKHVWYm0u2DOBz6244Y31+Pu0jZkruPQv7Yf3X48NvzUEHXnYzt0Yz41vG14c+iH9mXob+f9/HzZTcrp9Na/T1/4nDkDYyaIzFcReJ7lp+58J2eQ/4c8gUTJCY7W5daDWekTxFf0ArJKbxmW1wHykAIQxJpfguiMKMJULDgDcgrgbKriwUX4oADnYGUd8B42KcAzTMV0sPC6CzlibQWIkAJICJWUIiPqlKJfBuUxkBsXdaPNUobHg5RrogcveYSKh5TgdKeTIFRSEoLRKQkvhX4M+HI0JCBU+iCprFKOuMofrPlzO+9CP0g+/N7tQ3c6zavh/n25C3Jo3iO8/QY=);fillColor=none;fontSize=30;fontColor=#FF0000;" vertex="1" parent="1">
          <mxGeometry x="286.0317442152235" y="344.64285744561084" width="6.507958306206597" height="7.857148912217882" as="geometry" />
        </mxCell>
        <mxCell id="S5mfKkTuvSXy2Zh6-5-G-103" value="" style="shape=stencil(fZLbDoMgDIafhtsGKcdr597DRJ1kTo2609tPwpIJC9yV9v9oCz/Bcu3ruSWMrtsyXdunbbae4IkwZse+Xey2RwQrgmU3Le1lme5j489z7ZQuuk0Pd8PLcxQodRCj7yhx9vLBjge5juUcKE/LGQMe6gsOQqQBlCBUADCTHYgzEGEHFGB0GhA8BrgEo9KAlPHOYh/JpAEl4w6KAs8srRUgBoBG0JlnNSIeySAUmaUL+vfPh9QX2YOfSzo7DN5kx3rsqj3lHYnVBw==);fillColor=none;fontSize=30;fontColor=#FF0000;" vertex="1" parent="1">
          <mxGeometry x="285.71427663167316" y="349.0873018900553" width="3.968260023328993" height="5.238096449110243" as="geometry" />
        </mxCell>
        <mxCell id="S5mfKkTuvSXy2Zh6-5-G-104" value="" style="shape=stencil(fZTbboMwDIafJrdWYud43XXvUal0RGNQUbrD2y+IVYO4+C4Yf/79x2BFh1t7ujYK9W0ah/fmK5+nVtGLQsx924x5KidFR0WHyzA2b+Nw78/L8/U0Z86nj+FzrvC9cBq0niHUP1XgdUnvcr9KN0C0SUdwfj89AG6rGwPOCuUJgtkCCZAEwNf9l468YKA4qIEIFASAKZAFj/sAFYtbwGqIggKFWsE6MGkfsFwhimMo9SrAaUgSkOqWnH1M/ingiCl4CBLATHsNRhicZ6Y9PiLPATY4byFJQGIKEVAYXGCmgwEvmA6xbik4cQ4Ra4WoAYVPI7JrjfLXmpABEazQUmLXmqz8i2q2Y1ahP6Qc/jfUJXfdsuDW7+uNVkLLNqTjLw==);fillColor=none;fontSize=30;fontColor=#FF0000;" vertex="1" parent="1">
          <mxGeometry x="310.1587210761176" y="315.75396855672204" width="3.968260023328993" height="4.126985337999132" as="geometry" />
        </mxCell>
        <mxCell id="S5mfKkTuvSXy2Zh6-5-G-105" value="" style="shape=stencil(fZTbbsMwCIafxrfIBh/wdde9R6WmS7SsqdLs9PazlVUrccedY/iC+X+Eod21P1w6g/a6zNNr9zkcl97Qk0Eczn03D0s5Gdob2p2muXuZp/fzcf2+HGpmPb1NH/UPXytnwdoKof3eXDyv6eNwFulMIh2BlPQIQf7dWXDu/3xHgE4CDJQVIAKzfBCCVyqUMMsKmMGiAmQgWYECZAWoYS8AT+AUkbwDThLI4LwCpG0PwQMpTYem6VBkJQVIW+NiMToqRrutDzHedHsMRMAggGTBKyqlZlKTB6/0UMI2SiDdhH4MNLKyA1KcLuEgK3AAUozjZjS4DJ+iEjfDlxGC0nQNS5VyUGXNjQ+ZAZUnOdsYcXf1i5TD38I5DeO47qv7+HZBlat1udH+Bw==);fillColor=none;fontSize=30;fontColor=#FF0000;" vertex="1" parent="1">
          <mxGeometry x="309.0476099650065" y="310.0396961636013" width="6.349216037326388" height="6.904750400119357" as="geometry" />
        </mxCell>
        <mxCell id="S5mfKkTuvSXy2Zh6-5-G-106" value="" style="shape=stencil(fZTdboMwDIWfhtujxE6c5Lrr3qNS6UBjpaLs7+0XxNBwGbkz5nz4xI6p+HBvTre6InMfh/61/mzPY1PxU0XUXpt6aMccVXys+HDph/pl6N+v5/n5dpqUU/TWf0xf+Jo5A2MmiMz3Q+J5lnftdSWPsKLk1sLafb2N4KAAIpi4D5BH8grg7EgKQAI7DTBM2AdY4KICnAEXKjiGkAYEsVDBJQRtydNi8l/Ae1g9BS8IhQo+QZICxMDRPiAOhjXgim2VzeAkIBUsBULSVyNnbOHQISBaDeS2Fs4QCU53KVqQLwCbSUcPKVy+ZBYDC5AzwgUgV9BtTR6xAFizWbhV6hfJwd+6Xtqum7d9/f5xvXNq/jXw8Qc=);fillColor=none;fontSize=30;fontColor=#FF0000;" vertex="1" parent="1">
          <mxGeometry x="310.95238155788843" y="305.1190545823839" width="7.777777777777778" height="7.619043986002604" as="geometry" />
        </mxCell>
        <mxCell id="S5mfKkTuvSXy2Zh6-5-G-107" value="" style="shape=stencil(fZTLcoMwDEW/xluNLVl+rNP0PzITUphSyBDSx9/XDKVFNGgn7HssX1nC0OFWn66VQXsbh/61+mjOY23oySA2XV0NzVgiQ0dDh0s/VC9Df+/O8/f1NCmn6K1/n074nDkL1k4Q2q/NwvMsb5tuJUdwWcg9oN+XJ/Ao5I4g4b7eMXgnACRwGpAgb4AIGBUDDC4IgFh1TLg4/LWMkFkBMjgJsAWkfcAHsCyBoFaJEXwUQEDVNCdgmSHEJedDIHggWdbo1CvF0jbySjEAZwUoLy07Kbmlbo9byUKUD5fKEYqHsh02GTKQ4iFbYOkhEwTlSpkhyvbOCVxSutX+G7fV0g9Sgr9hvTRtO8/6en873GVp/jHQ8Rs=);fillColor=none;fontSize=30;fontColor=#FF0000;" vertex="1" parent="1">
          <mxGeometry x="311.2698321872287" y="300.51587210761176" width="12.063496907552082" height="8.73016357421875" as="geometry" />
        </mxCell>
        <mxCell id="S5mfKkTuvSXy2Zh6-5-G-108" value="" style="shape=stencil(lZPdboMwDIWfJrdHSRzn57rr3qNS6UBjUFH29/YLYnSYjUi7c5zzER9sKzrc6tO1UlbfxqF/rt6b81grelDWNl1dDc2YI0VHRYdLP1RPQ//anefz9TQpp+ilf5u+8DFzGlpPkNWfm8TjLG+bbiW30O4f8ogUhZwQ077cZD0LvWHoWCiHtg/kgiLtA2RhpAGbYMI+4DTYSwsBkQtAgiUBOA8ulMQBXppmXt78E/AOUfbME9jtA8EsFu9AQij0IdwrXoDAoILpaECyDyGBTQFgOPlbI8EXOh3TYvEOBHBh9FIeNVlSsuCC6RSQZEk5Mx13p1X/Wp5V6hvJwc/qXZq2nTd3fb9d1Zya15yOXw==);fillColor=none;fontSize=30;fontColor=#FF0000;" vertex="1" parent="1">
          <mxGeometry x="316.66666242811414" y="300.83333545260956" width="7.777777777777778" height="5.7142893473307295" as="geometry" />
        </mxCell>
        <mxCell id="S5mfKkTuvSXy2Zh6-5-G-109" value="" style="shape=stencil(fZXLciMxCEW/pre3BOi59mT+I1Vx4q7x2CnHmSR/H1wdaYwf7OQ2Rwi4wCSrt83j63ri8HY87P+sP+an42aSXxPzvNusD/NRT5M8TLJ63h/WL4f9++5p+f36eLI8nf7u/51u+Fw4CgEhnDAOX8un8eH3Amzn3RnQCko29gzy7AWhGvuMmu7bV72/GHsitOIACdE+iCKoOQCBxAIV0fFQMoRtyAJ2Yi6EbD1wQaz3gVz6izsgekV0AOlJH0CC5PtAahBbBqlI5AAZgQwQCSIOIJdCioLGDhB6TgagPp0YYu1ZH0BxpaH3UbJA6+q6DUSwLVwaYrkNMJL1kNittCaRbFo1b9XxIA3Zyjup4J3CiebEplVL2Zwnycj6AFQaTh0kQmyL5oDkdJxoTmyWMqN4QYce4gBS78GbANerJxVkJ2hOaDboEsCONLTls01rYVd8TJfiK+rTmRo0GnIADcEZlZRQrAcdbcUpHOnYsoOsaik9D3QpjZpRHPFVVDvHauvj//Yc67ug2zdCdOZeRLP9qesle8oD25S2hOwF3CfWsC9Iju6ulufZPv0B9PB/+T7P2+2yu8//v1zW+mlZ9PLwDQ==);fillColor=none;fontSize=30;fontColor=#FF0000;" vertex="1" parent="1">
          <mxGeometry x="308.5714509752062" y="303.53174633449976" width="16.50790744357639" height="17.619048224555122" as="geometry" />
        </mxCell>
        <mxCell id="S5mfKkTuvSXy2Zh6-5-G-110" value="" style="shape=stencil(fZPdbsMgDIWfhlsLYzDkuuveo1LTBTVLqjTrz9uPiGkNVPGdY84X+4CtaHftDpdWGX2dp/Hc3uNx7hR9KGPi0LVTnFOkaK9odxqn9msaf4Zj/r4cFuUSfY+35Q+PzKHWoPWCGf3Mqf/EZwb6OKyAhoCo0Hsg3tYHA+wLPQZgoYBHsGUB04AVAGZwpQOygEJLzteWLYktWV97cATabQMUaoARmARA1x44mQ7bgKEa8AyE2wC+eUgvY7wAUH1LId2b9NIQyndrEFDwbMHaUu/AWaGhevCaVFHQvw32atb/gBS8FuMU+z7v1fq8XqSUyktI+18=);fillColor=none;fontSize=30;fontColor=#FF0000;" vertex="1" parent="1">
          <mxGeometry x="308.41271718343097" y="301.1508030361599" width="11.904763115776909" height="13.650788201226128" as="geometry" />
        </mxCell>
        <mxCell id="S5mfKkTuvSXy2Zh6-5-G-111" value="" style="shape=stencil(fZPdboMwDIWfJrdHTpzf6657j0qlA41BRel+3n6gDIa7kTvHOV/kY8eKD7f6dK2Uods49K/VR3Mea8VPypimq6uhGadI8VHx4dIP1cvQ37tzPl9Ps3KO3vr3+YXPzGkiEM2Yoa+cWhPPGWibbgOkAP2o93pfHxM0C30E+319iIhR6HXCfNwFGEkLwFhwAfAeJCtiA1ew7ALYCsBqaLsP2AgvAUewrgDQYnEFEijtA8zQTgCTq1JbjYeXpoNB4AJASLKkaTK2MGjtELwcNC9t+B+gpYkrUDZtEZPQJ1vU//nZm8/+A0zB72ZcmrbNi7W9f9ykKZW3kI/f);fillColor=none;fontSize=30;fontColor=#FF0000;" vertex="1" parent="1">
          <mxGeometry x="309.5238282945421" y="299.0873018900553" width="7.3015594482421875" height="8.730161454942492" as="geometry" />
        </mxCell>
        <mxCell id="S5mfKkTuvSXy2Zh6-5-G-112" value="" style="shape=stencil(fZNNcsMgDIVPw1YDkgGxTtN7ZCZOzdS1M477d/vCUKeWG7OTZX08CfQUHW7d6doq1Ld5Gl/bz3ieO0VPCjEOXTvFOUWKjooOl3FqX6bxfTiX7+spV+bobfzIJ3wVzmgNWmcM9XdJ3RPPBejjsAKCB5T1BgLt13MAbGS9AeYKkPS9ALKC3Qe8BZYK6MBVWnIe2AmAGnCVmW2AxgqgIXCuAuhtSxbB+H0gnYcsgaSJ+wA5IKngUqYyA2lAOYPHRfMhgLTc+h3wYJt9wPB2BsZF8zFAwPKl2YGvtBS29SENVbkkC4SyPr1zqDQEKPciLTtXFumfdVZu+gVS8Ge9S+z74tz1/61VU6rYnI4/);fillColor=none;fontSize=30;fontColor=#FF0000;" vertex="1" parent="1">
          <mxGeometry x="312.30158064100476" y="308.92858081393774" width="9.444444444444445" height="10.95237308078342" as="geometry" />
        </mxCell>
        <mxCell id="S5mfKkTuvSXy2Zh6-5-G-114" value="" style="shape=stencil(jZzZshzHDUS/hq8dtS/PsvwfihBlMkyTCore/t4o36i+04npM3q7HCKna0EBiUT1fMg//fHpl98/fkjhjx/fv/39478///rj04f8lw8pff766eP3zz/srw/55w/5p9++ff/4t+/f/vn117d///7Lslx//ePbv9Y3/OcNl+cRwkKl8N+3T2I8avz/J399A3z5/PURMI7pAKUioHsAPyEnBWR+QnCA1ADQj+qGFAMA2jHaFRCOWRAQhgIGPaEeMSug0RyK27jAG5eOHhWQJwCi2wcD5HtAmsdwc6AnpHGk6iadANCO5p4wCVCOOZ0vESDvET8ARgdAdK6Rjgobl8L2/hNgz4QnRDuiskrlyOBLsR9d5lDxPMS2V/0EtCPBxtn3FXHvfhRYVhtxEW8d6N5rTWRZJ544W3VZVtuZBFFjxbnrkJJtHO2D+Wa5AvIx4cRN9Yxk2zDIPsr3277APg83gX4M+P5+zOvhSadn3djLiuZwRLBv+yie9rYDMP52lOv6WIhKsJ4WU/vVPu8Ve2pfj3Y9Bu8x88Y+D7UfMJ56BBl/PSrEx7IzwGlvpwzGX4461H7CqbSocPUfy3N0xsrezdN+YCAyb5f5zp3lbuz7UPsB65OPdvW3EvYK3NiX63zLC2KxV/u0T0wTNO6WvD3weWTfieLBHpPT3p3Tvhwdv79cz1cxD4f1Sfv0nfYN7eMxZfx9n6AbeyEUxagehejNE0/7iesTdzTY9jVi/Ama62tCfwh6Hqt5IKx/UP+sBccfdL61YbwKOzuc9h3pk0Vjme/ABBaUYtaJbCtovG3Mzsz+er5afDEeYbAt7RN9Z3/1/5aRpfjxlB2x7+yb2tN5tPW8+kOrL8YfZT0to+H4JV6ZfYf4GXaVdNr3zbpu7IU/tPFiPK2rfcf1FP7T5lFg/FFrph6wKoubBT/Y037FnZ1Pe4tIaN+v8+3piBhvQ1b7QeXP9t7TPiPfM3p63d9uGR/iW9rs5bSv+wTd5Lvo7Gk9s/LD3nZZcMcHrue39x3BbviJ+kPf2sONvY6H42HZp+m0nxhPqo5nBIwnVeO/2dP4q+7XODPsDR+O1/M1uPJs6v+DC8+2q4nTvqD/d81fw1YMxt81npg9xZOh8Xk0VJ7GPt2nfUf+NrQ+MnviS1P52BjoP1P5s9kj/zkFnRNgjyRCFpWxzoAVngGaAxDltio7Xddoxh017gAjKaARIKtSMBNngbKd7AGATyhax0/m9bFqojEArlI9piwrM48lwDgAahFdfW/WzXaeA4YWA7NisDbALAogtSNOLQcmi0ieH8/G6l90ztcwoK6MfM2w0zIOPSG5SXeWPLNz745H1Ced2bHosKzQ3RMGnOl0FnkPAJINLA7rkAbznKHEyAAZnG8pYVEBleTz4A4QU82cNDcbgCadrXSQZZ2bnt/p7SIMG4DY1xKDmgLINXJTPcAAjVap7zV5AOAqDa14DTDoCfZ91QHANUrQZs/kGr9EF4zPNPkcYBznunExBJT1St5Vx59GOCVtDYqmXbWR8WoWzYXjydy2OwfnrStd+3TLOWgOw8WNifSnOP5jANI/a1DBcR0hItxBFTUDkKZfXYlnAErt1Wlk82SBdwDNECx6VaeCrtgHJ6IWla3nwJZVrW7jBma5+ixDUI+rdkdPzk+eA4b26VZapCdMt3EdyUMLO/g+pnZqNkStzhd5oGrJc+OGJ64l1SsNQOHYAJp42w6fzwFZO7KTO0QGEEl3csnUyuYWjySOAE1FuXmS3+eA7lhf3X2g54DpokbZWel5Wel0YKPr2BdLO7g/VBAk3PSileI8u8DPAc0tK18HWMqF1NITtb8lRVwnPQb60jivSDxUu1h9O/ce3I4aWU/c4H6XAYQ8jIoC/iiqeNonlSZdVXJ+IYEYQIKALUOkfbApiujAouRaxGtC6RPJ9BIlBMAVxDi7eg86Heky5mpRhFUWGg0gvLJzCW7eX0T6DJh27XypFj6xF2QnWJsFHS9NGEDydKu4D0sDEPk/o7da2BK9zlIM6eGzaJ1laZJq9hVJpaPVURFcsVpaThVj63Q9e6MrpDCtnOmbcjRppyLWgAllURFpc3Kdtcph6UOOHameA9w1pdKwsb4YnnRGK0a+6SpqK1ooGE93bW/1ssk1pta7q1RjgHTXrRgkVWBVC3KdoKOc816PnICGKtmqeNyFDrp1NJ3imk858hYgQ4p73W4kWtfETJN9Y2q8TwO7wtPdqkttS0K3G3GdRHoRyaa7SFT4QMwtip2AhOxkaSvuchZlFDsQ0nuIEymZAfQKG5dZq6iSC2ad98G1HyJfv7A4I4c6FrwPNR01junVEyRRv7j4+l6QnDx0Fwi34V4o3Kv0IFcGOup804mbDTvWZi9UhgnirNobKOwURY9Oxhtg01+52jn+jjNIafKCJ2XNbQlFSrOXKwaRg3xSrSFiLTbPBvi7PeaEeNTr97/I5UHjb8AO6HQqAN+BNqIqmmxgrj3UPwOe4NG1zuMbDKOpSBewi2PlyNDxU0d/uCuHLHxaNdR0vvj9Sa9Mvhi/u+IR8AahlUISQgOer1U2Z7En3mWVU9b9onhihVPS9a8kFFStmQPGE6uzpMMV+YZuVrIcMX52d4Uwsgzh1PmENzasihtqTzcIu7vSlTGeWNGXNN4S72hDy5XCqmLX+M83/FpTIahi29bs5cpe4xvSVUl4wx5sK9pCYgpuFavEE74BbPbaa0fO1JLT7rDMb1Hj+bp0Tw4R3IsI/K7Q+5XHB45FYkgdSpkWKYM1ra68jBkPjQH01Z+Mk65No5YRS0ozq0MQFEAlshX1Sr8LNp0NII5t5JiYSs2bGD4AiHqsxktSADZekiP4Fd8gqdG92dZQ66vuQnM81b/ngKByvAHovFXv3g3Vk+rK0QWgO3bTtVMbv8Tg30Z6ATgv4T0C4MQtNcY9AefQNeu/WKXVTHWTpn0oTeX4BaA5NA18kfsopbow0/hypCuFFoCG5GohA7zoguuLm5V71P4lr8o96uLKCT7T64WKrAC6IrFktKgAqkgNoOehIqUyQHaBjJQ4A2i451BZ0pNJU1PbAOpLBdPuulPhwz0D9C3JgkSv+MKx7NvMzwFRK8H3VwjvAN0BSAsprjZdWZRcIyoZi/w+WYnu9dbMByhqEy+yDFyCS4oZG/NL9HVDwmAcnGtwx8wAukp5FzV3AOmYRb6OWYJTvRL2d/N0ByhhbzRPbcy/eKfXAMpmzsr4DqDkJGGlmqdTdhK+rLHe0xdARO3FXw5bbz7ze/rqGpGXdbg3nyMGAQNIuR25Y/Ynfs3A/nj/LYTfPn/58vZTCo//r7+dYB+9/e5C/vl/);fillColor=none;fontSize=30;fontColor=#FF0000;strokeColor=#069968;" vertex="1" parent="1">
          <mxGeometry x="163.16325596400668" y="262.6258581252325" width="182.78912862141925" height="167.89114089239212" as="geometry" />
        </mxCell>
      </root>
    </mxGraphModel>
  </diagram>
</mxfile>
